<mxfile host="app.diagrams.net" modified="2024-04-04T04:56:00.643Z" agent="Mozilla/5.0 (Windows NT 10.0; Win64; x64) AppleWebKit/537.36 (KHTML, like Gecko) Chrome/123.0.0.0 Safari/537.36" etag="oeA7FdDHcfs0N1S-WDdr" version="24.1.0" type="device">
  <diagram id="C5RBs43oDa-KdzZeNtuy" name="Page-1">
    <mxGraphModel dx="4334" dy="420" grid="1" gridSize="10" guides="1" tooltips="1" connect="1" arrows="1" fold="1" page="1" pageScale="1" pageWidth="3300" pageHeight="2339" math="0" shadow="0">
      <root>
        <mxCell id="WIyWlLk6GJQsqaUBKTNV-0" />
        <mxCell id="WIyWlLk6GJQsqaUBKTNV-1" parent="WIyWlLk6GJQsqaUBKTNV-0" />
        <mxCell id="Xao7OCAb9ZQWuUR-Rcpr-11" value="" style="group" parent="WIyWlLk6GJQsqaUBKTNV-1" vertex="1" connectable="0">
          <mxGeometry x="-2130" y="330" width="1315" height="865" as="geometry" />
        </mxCell>
        <mxCell id="Xao7OCAb9ZQWuUR-Rcpr-12" value="Crawler" style="shape=module;align=left;spacingLeft=20;align=center;verticalAlign=top;whiteSpace=wrap;html=1;" parent="Xao7OCAb9ZQWuUR-Rcpr-11" vertex="1">
          <mxGeometry width="1315" height="865" as="geometry" />
        </mxCell>
        <mxCell id="DRw0ia5wetzp8-GoF1U9-31" value="" style="group" parent="WIyWlLk6GJQsqaUBKTNV-1" vertex="1" connectable="0">
          <mxGeometry x="-2080" y="380" width="470" height="380" as="geometry" />
        </mxCell>
        <mxCell id="DRw0ia5wetzp8-GoF1U9-12" value="Domain" style="shape=module;align=left;spacingLeft=20;align=center;verticalAlign=top;whiteSpace=wrap;html=1;" parent="DRw0ia5wetzp8-GoF1U9-31" vertex="1">
          <mxGeometry width="470" height="380" as="geometry" />
        </mxCell>
        <mxCell id="DRw0ia5wetzp8-GoF1U9-32" value="WebPage" style="swimlane;fontStyle=1;align=center;verticalAlign=top;childLayout=stackLayout;horizontal=1;startSize=26;horizontalStack=0;resizeParent=1;resizeParentMax=0;resizeLast=0;collapsible=1;marginBottom=0;whiteSpace=wrap;html=1;" parent="DRw0ia5wetzp8-GoF1U9-31" vertex="1">
          <mxGeometry x="60" y="56" width="160" height="294" as="geometry" />
        </mxCell>
        <mxCell id="DRw0ia5wetzp8-GoF1U9-33" value="+ page_id: bytes" style="text;strokeColor=none;fillColor=none;align=left;verticalAlign=top;spacingLeft=4;spacingRight=4;overflow=hidden;rotatable=0;points=[[0,0.5],[1,0.5]];portConstraint=eastwest;whiteSpace=wrap;html=1;" parent="DRw0ia5wetzp8-GoF1U9-32" vertex="1">
          <mxGeometry y="26" width="160" height="26" as="geometry" />
        </mxCell>
        <mxCell id="DRw0ia5wetzp8-GoF1U9-36" value="+ url: str" style="text;strokeColor=none;fillColor=none;align=left;verticalAlign=top;spacingLeft=4;spacingRight=4;overflow=hidden;rotatable=0;points=[[0,0.5],[1,0.5]];portConstraint=eastwest;whiteSpace=wrap;html=1;" parent="DRw0ia5wetzp8-GoF1U9-32" vertex="1">
          <mxGeometry y="52" width="160" height="26" as="geometry" />
        </mxCell>
        <mxCell id="DRw0ia5wetzp8-GoF1U9-37" value="+ domain: str" style="text;strokeColor=none;fillColor=none;align=left;verticalAlign=top;spacingLeft=4;spacingRight=4;overflow=hidden;rotatable=0;points=[[0,0.5],[1,0.5]];portConstraint=eastwest;whiteSpace=wrap;html=1;" parent="DRw0ia5wetzp8-GoF1U9-32" vertex="1">
          <mxGeometry y="78" width="160" height="26" as="geometry" />
        </mxCell>
        <mxCell id="DRw0ia5wetzp8-GoF1U9-38" value="+ title: str" style="text;strokeColor=none;fillColor=none;align=left;verticalAlign=top;spacingLeft=4;spacingRight=4;overflow=hidden;rotatable=0;points=[[0,0.5],[1,0.5]];portConstraint=eastwest;whiteSpace=wrap;html=1;" parent="DRw0ia5wetzp8-GoF1U9-32" vertex="1">
          <mxGeometry y="104" width="160" height="26" as="geometry" />
        </mxCell>
        <mxCell id="DRw0ia5wetzp8-GoF1U9-39" value="+ ingestion_time: datetime" style="text;strokeColor=none;fillColor=none;align=left;verticalAlign=top;spacingLeft=4;spacingRight=4;overflow=hidden;rotatable=0;points=[[0,0.5],[1,0.5]];portConstraint=eastwest;whiteSpace=wrap;html=1;" parent="DRw0ia5wetzp8-GoF1U9-32" vertex="1">
          <mxGeometry y="130" width="160" height="26" as="geometry" />
        </mxCell>
        <mxCell id="DRw0ia5wetzp8-GoF1U9-40" value="+ full_content: str" style="text;strokeColor=none;fillColor=none;align=left;verticalAlign=top;spacingLeft=4;spacingRight=4;overflow=hidden;rotatable=0;points=[[0,0.5],[1,0.5]];portConstraint=eastwest;whiteSpace=wrap;html=1;" parent="DRw0ia5wetzp8-GoF1U9-32" vertex="1">
          <mxGeometry y="156" width="160" height="26" as="geometry" />
        </mxCell>
        <mxCell id="DRw0ia5wetzp8-GoF1U9-41" value="+ headings: str (json string)" style="text;strokeColor=none;fillColor=none;align=left;verticalAlign=top;spacingLeft=4;spacingRight=4;overflow=hidden;rotatable=0;points=[[0,0.5],[1,0.5]];portConstraint=eastwest;whiteSpace=wrap;html=1;" parent="DRw0ia5wetzp8-GoF1U9-32" vertex="1">
          <mxGeometry y="182" width="160" height="26" as="geometry" />
        </mxCell>
        <mxCell id="DRw0ia5wetzp8-GoF1U9-42" value="+ main_content: str" style="text;strokeColor=none;fillColor=none;align=left;verticalAlign=top;spacingLeft=4;spacingRight=4;overflow=hidden;rotatable=0;points=[[0,0.5],[1,0.5]];portConstraint=eastwest;whiteSpace=wrap;html=1;" parent="DRw0ia5wetzp8-GoF1U9-32" vertex="1">
          <mxGeometry y="208" width="160" height="26" as="geometry" />
        </mxCell>
        <mxCell id="DRw0ia5wetzp8-GoF1U9-43" value="+ keywords: list[str]" style="text;strokeColor=none;fillColor=none;align=left;verticalAlign=top;spacingLeft=4;spacingRight=4;overflow=hidden;rotatable=0;points=[[0,0.5],[1,0.5]];portConstraint=eastwest;whiteSpace=wrap;html=1;" parent="DRw0ia5wetzp8-GoF1U9-32" vertex="1">
          <mxGeometry y="234" width="160" height="26" as="geometry" />
        </mxCell>
        <mxCell id="DRw0ia5wetzp8-GoF1U9-44" value="+ rank: int" style="text;strokeColor=none;fillColor=none;align=left;verticalAlign=top;spacingLeft=4;spacingRight=4;overflow=hidden;rotatable=0;points=[[0,0.5],[1,0.5]];portConstraint=eastwest;whiteSpace=wrap;html=1;" parent="DRw0ia5wetzp8-GoF1U9-32" vertex="1">
          <mxGeometry y="260" width="160" height="26" as="geometry" />
        </mxCell>
        <mxCell id="DRw0ia5wetzp8-GoF1U9-34" value="" style="line;strokeWidth=1;fillColor=none;align=left;verticalAlign=middle;spacingTop=-1;spacingLeft=3;spacingRight=3;rotatable=0;labelPosition=right;points=[];portConstraint=eastwest;strokeColor=inherit;" parent="DRw0ia5wetzp8-GoF1U9-32" vertex="1">
          <mxGeometry y="286" width="160" height="8" as="geometry" />
        </mxCell>
        <mxCell id="DRw0ia5wetzp8-GoF1U9-45" value="WebPageDataController" style="swimlane;fontStyle=1;align=center;verticalAlign=top;childLayout=stackLayout;horizontal=1;startSize=26;horizontalStack=0;resizeParent=1;resizeParentMax=0;resizeLast=0;collapsible=1;marginBottom=0;whiteSpace=wrap;html=1;" parent="DRw0ia5wetzp8-GoF1U9-31" vertex="1">
          <mxGeometry x="260" y="58" width="160" height="60" as="geometry" />
        </mxCell>
        <mxCell id="DRw0ia5wetzp8-GoF1U9-47" value="" style="line;strokeWidth=1;fillColor=none;align=left;verticalAlign=middle;spacingTop=-1;spacingLeft=3;spacingRight=3;rotatable=0;labelPosition=right;points=[];portConstraint=eastwest;strokeColor=inherit;" parent="DRw0ia5wetzp8-GoF1U9-45" vertex="1">
          <mxGeometry y="26" width="160" height="8" as="geometry" />
        </mxCell>
        <mxCell id="DRw0ia5wetzp8-GoF1U9-48" value="+ create(**data): WebPage" style="text;strokeColor=none;fillColor=none;align=left;verticalAlign=top;spacingLeft=4;spacingRight=4;overflow=hidden;rotatable=0;points=[[0,0.5],[1,0.5]];portConstraint=eastwest;whiteSpace=wrap;html=1;" parent="DRw0ia5wetzp8-GoF1U9-45" vertex="1">
          <mxGeometry y="34" width="160" height="26" as="geometry" />
        </mxCell>
        <mxCell id="DRw0ia5wetzp8-GoF1U9-49" value="App" style="shape=module;align=left;spacingLeft=20;align=center;verticalAlign=top;whiteSpace=wrap;html=1;" parent="WIyWlLk6GJQsqaUBKTNV-1" vertex="1">
          <mxGeometry x="-1500" y="390" width="650" height="770" as="geometry" />
        </mxCell>
        <UserObject label="SearchEngine" tooltip="GCS Engine" id="DRw0ia5wetzp8-GoF1U9-50">
          <mxCell style="shape=module;align=left;spacingLeft=20;align=center;verticalAlign=top;whiteSpace=wrap;html=1;" parent="WIyWlLk6GJQsqaUBKTNV-1" vertex="1">
            <mxGeometry x="-1470" y="430" width="320" height="280" as="geometry" />
          </mxCell>
        </UserObject>
        <mxCell id="DRw0ia5wetzp8-GoF1U9-51" value="ProxyService" style="shape=module;align=left;spacingLeft=20;align=center;verticalAlign=top;whiteSpace=wrap;html=1;" parent="WIyWlLk6GJQsqaUBKTNV-1" vertex="1">
          <mxGeometry x="-1140" y="430" width="280" height="280" as="geometry" />
        </mxCell>
        <mxCell id="DRw0ia5wetzp8-GoF1U9-52" value="Crawler" style="shape=module;align=left;spacingLeft=20;align=center;verticalAlign=top;whiteSpace=wrap;html=1;" parent="WIyWlLk6GJQsqaUBKTNV-1" vertex="1">
          <mxGeometry x="-1470" y="810" width="590" height="300" as="geometry" />
        </mxCell>
        <mxCell id="DRw0ia5wetzp8-GoF1U9-54" value="«interface»&lt;br style=&quot;border-color: var(--border-color); font-weight: 400;&quot;&gt;Crawler" style="swimlane;fontStyle=1;align=center;verticalAlign=top;childLayout=stackLayout;horizontal=1;startSize=40;horizontalStack=0;resizeParent=1;resizeParentMax=0;resizeLast=0;collapsible=1;marginBottom=0;whiteSpace=wrap;html=1;" parent="WIyWlLk6GJQsqaUBKTNV-1" vertex="1">
          <mxGeometry x="-1430" y="840" width="240" height="204" as="geometry" />
        </mxCell>
        <mxCell id="DRw0ia5wetzp8-GoF1U9-55" value="+ search_engine: SearchEngine" style="text;strokeColor=none;fillColor=none;align=left;verticalAlign=top;spacingLeft=4;spacingRight=4;overflow=hidden;rotatable=0;points=[[0,0.5],[1,0.5]];portConstraint=eastwest;whiteSpace=wrap;html=1;" parent="DRw0ia5wetzp8-GoF1U9-54" vertex="1">
          <mxGeometry y="40" width="240" height="26" as="geometry" />
        </mxCell>
        <mxCell id="vX5pZIuZ9iRdlRf0UHtW-10" value="+ proxy: Proxy" style="text;strokeColor=none;fillColor=none;align=left;verticalAlign=top;spacingLeft=4;spacingRight=4;overflow=hidden;rotatable=0;points=[[0,0.5],[1,0.5]];portConstraint=eastwest;whiteSpace=wrap;html=1;" parent="DRw0ia5wetzp8-GoF1U9-54" vertex="1">
          <mxGeometry y="66" width="240" height="26" as="geometry" />
        </mxCell>
        <mxCell id="vX5pZIuZ9iRdlRf0UHtW-11" value="+ db_io_controller: IOController" style="text;strokeColor=none;fillColor=none;align=left;verticalAlign=top;spacingLeft=4;spacingRight=4;overflow=hidden;rotatable=0;points=[[0,0.5],[1,0.5]];portConstraint=eastwest;whiteSpace=wrap;html=1;" parent="DRw0ia5wetzp8-GoF1U9-54" vertex="1">
          <mxGeometry y="92" width="240" height="26" as="geometry" />
        </mxCell>
        <mxCell id="DRw0ia5wetzp8-GoF1U9-56" value="" style="line;strokeWidth=1;fillColor=none;align=left;verticalAlign=middle;spacingTop=-1;spacingLeft=3;spacingRight=3;rotatable=0;labelPosition=right;points=[];portConstraint=eastwest;strokeColor=inherit;" parent="DRw0ia5wetzp8-GoF1U9-54" vertex="1">
          <mxGeometry y="118" width="240" height="8" as="geometry" />
        </mxCell>
        <UserObject label="+ crawl(keyword: str, n: int): WebPage" tooltip="Crawl function first get top n results related to keyword from search engine,&#xa;then if flag get_full_content is set to true, get content according to search engine results" id="DRw0ia5wetzp8-GoF1U9-57">
          <mxCell style="text;strokeColor=none;fillColor=none;align=left;verticalAlign=top;spacingLeft=4;spacingRight=4;overflow=hidden;rotatable=0;points=[[0,0.5],[1,0.5]];portConstraint=eastwest;whiteSpace=wrap;html=1;" parent="DRw0ia5wetzp8-GoF1U9-54" vertex="1">
            <mxGeometry y="126" width="240" height="26" as="geometry" />
          </mxCell>
        </UserObject>
        <mxCell id="vX5pZIuZ9iRdlRf0UHtW-8" value="+ __get_full_content(): Response" style="text;strokeColor=none;fillColor=none;align=left;verticalAlign=top;spacingLeft=4;spacingRight=4;overflow=hidden;rotatable=0;points=[[0,0.5],[1,0.5]];portConstraint=eastwest;whiteSpace=wrap;html=1;" parent="DRw0ia5wetzp8-GoF1U9-54" vertex="1">
          <mxGeometry y="152" width="240" height="26" as="geometry" />
        </mxCell>
        <mxCell id="vX5pZIuZ9iRdlRf0UHtW-9" value="+ dumps_to_db(): None" style="text;strokeColor=none;fillColor=none;align=left;verticalAlign=top;spacingLeft=4;spacingRight=4;overflow=hidden;rotatable=0;points=[[0,0.5],[1,0.5]];portConstraint=eastwest;whiteSpace=wrap;html=1;" parent="DRw0ia5wetzp8-GoF1U9-54" vertex="1">
          <mxGeometry y="178" width="240" height="26" as="geometry" />
        </mxCell>
        <mxCell id="kKvoAmYUAKAfmo3sQOy--0" value="«interface»&lt;br style=&quot;border-color: var(--border-color); font-weight: 400;&quot;&gt;SearchEngine" style="swimlane;fontStyle=1;align=center;verticalAlign=top;childLayout=stackLayout;horizontal=1;startSize=40;horizontalStack=0;resizeParent=1;resizeParentMax=0;resizeLast=0;collapsible=1;marginBottom=0;whiteSpace=wrap;html=1;" parent="WIyWlLk6GJQsqaUBKTNV-1" vertex="1">
          <mxGeometry x="-1440" y="595" width="160" height="100" as="geometry" />
        </mxCell>
        <mxCell id="kKvoAmYUAKAfmo3sQOy--1" value="+ field: type" style="text;strokeColor=none;fillColor=none;align=left;verticalAlign=top;spacingLeft=4;spacingRight=4;overflow=hidden;rotatable=0;points=[[0,0.5],[1,0.5]];portConstraint=eastwest;whiteSpace=wrap;html=1;" parent="kKvoAmYUAKAfmo3sQOy--0" vertex="1">
          <mxGeometry y="40" width="160" height="26" as="geometry" />
        </mxCell>
        <mxCell id="kKvoAmYUAKAfmo3sQOy--2" value="" style="line;strokeWidth=1;fillColor=none;align=left;verticalAlign=middle;spacingTop=-1;spacingLeft=3;spacingRight=3;rotatable=0;labelPosition=right;points=[];portConstraint=eastwest;strokeColor=inherit;" parent="kKvoAmYUAKAfmo3sQOy--0" vertex="1">
          <mxGeometry y="66" width="160" height="8" as="geometry" />
        </mxCell>
        <mxCell id="kKvoAmYUAKAfmo3sQOy--3" value="+ method(type): type" style="text;strokeColor=none;fillColor=none;align=left;verticalAlign=top;spacingLeft=4;spacingRight=4;overflow=hidden;rotatable=0;points=[[0,0.5],[1,0.5]];portConstraint=eastwest;whiteSpace=wrap;html=1;" parent="kKvoAmYUAKAfmo3sQOy--0" vertex="1">
          <mxGeometry y="74" width="160" height="26" as="geometry" />
        </mxCell>
        <mxCell id="kKvoAmYUAKAfmo3sQOy--4" value="«interface»&lt;br style=&quot;border-color: var(--border-color); font-weight: 400;&quot;&gt;Proxy" style="swimlane;fontStyle=1;align=center;verticalAlign=top;childLayout=stackLayout;horizontal=1;startSize=40;horizontalStack=0;resizeParent=1;resizeParentMax=0;resizeLast=0;collapsible=1;marginBottom=0;whiteSpace=wrap;html=1;" parent="WIyWlLk6GJQsqaUBKTNV-1" vertex="1">
          <mxGeometry x="-1110" y="595" width="160" height="100" as="geometry" />
        </mxCell>
        <mxCell id="kKvoAmYUAKAfmo3sQOy--5" value="+ field: type" style="text;strokeColor=none;fillColor=none;align=left;verticalAlign=top;spacingLeft=4;spacingRight=4;overflow=hidden;rotatable=0;points=[[0,0.5],[1,0.5]];portConstraint=eastwest;whiteSpace=wrap;html=1;" parent="kKvoAmYUAKAfmo3sQOy--4" vertex="1">
          <mxGeometry y="40" width="160" height="26" as="geometry" />
        </mxCell>
        <mxCell id="kKvoAmYUAKAfmo3sQOy--6" value="" style="line;strokeWidth=1;fillColor=none;align=left;verticalAlign=middle;spacingTop=-1;spacingLeft=3;spacingRight=3;rotatable=0;labelPosition=right;points=[];portConstraint=eastwest;strokeColor=inherit;" parent="kKvoAmYUAKAfmo3sQOy--4" vertex="1">
          <mxGeometry y="66" width="160" height="8" as="geometry" />
        </mxCell>
        <mxCell id="kKvoAmYUAKAfmo3sQOy--7" value="+ method(type): type" style="text;strokeColor=none;fillColor=none;align=left;verticalAlign=top;spacingLeft=4;spacingRight=4;overflow=hidden;rotatable=0;points=[[0,0.5],[1,0.5]];portConstraint=eastwest;whiteSpace=wrap;html=1;" parent="kKvoAmYUAKAfmo3sQOy--4" vertex="1">
          <mxGeometry y="74" width="160" height="26" as="geometry" />
        </mxCell>
        <mxCell id="kKvoAmYUAKAfmo3sQOy--10" value="" style="group" parent="WIyWlLk6GJQsqaUBKTNV-1" vertex="1" connectable="0">
          <mxGeometry x="-2080" y="780" width="470" height="380" as="geometry" />
        </mxCell>
        <mxCell id="kKvoAmYUAKAfmo3sQOy--11" value="Storage" style="shape=module;align=left;spacingLeft=20;align=center;verticalAlign=top;whiteSpace=wrap;html=1;" parent="kKvoAmYUAKAfmo3sQOy--10" vertex="1">
          <mxGeometry width="470" height="380" as="geometry" />
        </mxCell>
        <mxCell id="vX5pZIuZ9iRdlRf0UHtW-1" value="" style="edgeStyle=orthogonalEdgeStyle;rounded=0;orthogonalLoop=1;jettySize=auto;html=1;" parent="kKvoAmYUAKAfmo3sQOy--10" source="kKvoAmYUAKAfmo3sQOy--27" target="vX5pZIuZ9iRdlRf0UHtW-0" edge="1">
          <mxGeometry relative="1" as="geometry" />
        </mxCell>
        <mxCell id="kKvoAmYUAKAfmo3sQOy--27" value="«interface»&lt;br style=&quot;border-color: var(--border-color); font-weight: 400;&quot;&gt;IOController" style="swimlane;fontStyle=1;align=center;verticalAlign=top;childLayout=stackLayout;horizontal=1;startSize=40;horizontalStack=0;resizeParent=1;resizeParentMax=0;resizeLast=0;collapsible=1;marginBottom=0;whiteSpace=wrap;html=1;" parent="kKvoAmYUAKAfmo3sQOy--10" vertex="1">
          <mxGeometry x="140" y="50" width="160" height="100" as="geometry" />
        </mxCell>
        <mxCell id="kKvoAmYUAKAfmo3sQOy--29" value="" style="line;strokeWidth=1;fillColor=none;align=left;verticalAlign=middle;spacingTop=-1;spacingLeft=3;spacingRight=3;rotatable=0;labelPosition=right;points=[];portConstraint=eastwest;strokeColor=inherit;" parent="kKvoAmYUAKAfmo3sQOy--27" vertex="1">
          <mxGeometry y="40" width="160" height="8" as="geometry" />
        </mxCell>
        <mxCell id="kKvoAmYUAKAfmo3sQOy--30" value="+ dumps_to_db()" style="text;strokeColor=none;fillColor=none;align=left;verticalAlign=top;spacingLeft=4;spacingRight=4;overflow=hidden;rotatable=0;points=[[0,0.5],[1,0.5]];portConstraint=eastwest;whiteSpace=wrap;html=1;" parent="kKvoAmYUAKAfmo3sQOy--27" vertex="1">
          <mxGeometry y="48" width="160" height="26" as="geometry" />
        </mxCell>
        <mxCell id="vX5pZIuZ9iRdlRf0UHtW-12" value="+ read_from_db()" style="text;strokeColor=none;fillColor=none;align=left;verticalAlign=top;spacingLeft=4;spacingRight=4;overflow=hidden;rotatable=0;points=[[0,0.5],[1,0.5]];portConstraint=eastwest;whiteSpace=wrap;html=1;" parent="kKvoAmYUAKAfmo3sQOy--27" vertex="1">
          <mxGeometry y="74" width="160" height="26" as="geometry" />
        </mxCell>
        <mxCell id="vX5pZIuZ9iRdlRf0UHtW-0" value="" style="shape=datastore;whiteSpace=wrap;html=1;" parent="kKvoAmYUAKAfmo3sQOy--10" vertex="1">
          <mxGeometry x="40" y="70" width="55" height="60" as="geometry" />
        </mxCell>
        <mxCell id="vX5pZIuZ9iRdlRf0UHtW-2" style="edgeStyle=orthogonalEdgeStyle;rounded=0;orthogonalLoop=1;jettySize=auto;html=1;exitX=0;exitY=0.5;exitDx=0;exitDy=0;entryX=1.004;entryY=0.378;entryDx=0;entryDy=0;entryPerimeter=0;" parent="WIyWlLk6GJQsqaUBKTNV-1" source="kKvoAmYUAKAfmo3sQOy--1" target="DRw0ia5wetzp8-GoF1U9-45" edge="1">
          <mxGeometry relative="1" as="geometry" />
        </mxCell>
        <mxCell id="vX5pZIuZ9iRdlRf0UHtW-3" style="edgeStyle=orthogonalEdgeStyle;rounded=0;orthogonalLoop=1;jettySize=auto;html=1;exitX=0;exitY=0.5;exitDx=0;exitDy=0;entryX=1;entryY=0.5;entryDx=0;entryDy=0;" parent="WIyWlLk6GJQsqaUBKTNV-1" source="DRw0ia5wetzp8-GoF1U9-55" target="kKvoAmYUAKAfmo3sQOy--27" edge="1">
          <mxGeometry relative="1" as="geometry">
            <Array as="points">
              <mxPoint x="-1550" y="893" />
              <mxPoint x="-1550" y="880" />
            </Array>
          </mxGeometry>
        </mxCell>
        <mxCell id="vX5pZIuZ9iRdlRf0UHtW-5" value="" style="endArrow=classic;html=1;rounded=0;exitX=1;exitY=0.5;exitDx=0;exitDy=0;entryX=0;entryY=0.5;entryDx=0;entryDy=0;" parent="WIyWlLk6GJQsqaUBKTNV-1" source="kKvoAmYUAKAfmo3sQOy--1" target="kKvoAmYUAKAfmo3sQOy--5" edge="1">
          <mxGeometry width="50" height="50" relative="1" as="geometry">
            <mxPoint x="-1230" y="560" as="sourcePoint" />
            <mxPoint x="-1180" y="510" as="targetPoint" />
          </mxGeometry>
        </mxCell>
        <mxCell id="vX5pZIuZ9iRdlRf0UHtW-6" value="" style="endArrow=classic;html=1;rounded=0;exitX=0.5;exitY=0;exitDx=0;exitDy=0;edgeStyle=elbowEdgeStyle;" parent="WIyWlLk6GJQsqaUBKTNV-1" source="DRw0ia5wetzp8-GoF1U9-54" target="kKvoAmYUAKAfmo3sQOy--0" edge="1">
          <mxGeometry width="50" height="50" relative="1" as="geometry">
            <mxPoint x="-1230" y="770" as="sourcePoint" />
            <mxPoint x="-1180" y="720" as="targetPoint" />
          </mxGeometry>
        </mxCell>
        <UserObject label="GGCrawler" tooltip="an implementation of ICrawler, it&#39;s optimized to use google custome search engine" id="vX5pZIuZ9iRdlRf0UHtW-13">
          <mxCell style="swimlane;fontStyle=1;align=center;verticalAlign=top;childLayout=stackLayout;horizontal=1;startSize=26;horizontalStack=0;resizeParent=1;resizeParentMax=0;resizeLast=0;collapsible=1;marginBottom=0;whiteSpace=wrap;html=1;" parent="WIyWlLk6GJQsqaUBKTNV-1" vertex="1" collapsed="1">
            <mxGeometry x="-1120" y="840" width="100" height="30" as="geometry">
              <mxRectangle x="960" y="830" width="160" height="86" as="alternateBounds" />
            </mxGeometry>
          </mxCell>
        </UserObject>
        <mxCell id="vX5pZIuZ9iRdlRf0UHtW-14" value="+ field: type" style="text;strokeColor=none;fillColor=none;align=left;verticalAlign=top;spacingLeft=4;spacingRight=4;overflow=hidden;rotatable=0;points=[[0,0.5],[1,0.5]];portConstraint=eastwest;whiteSpace=wrap;html=1;" parent="vX5pZIuZ9iRdlRf0UHtW-13" vertex="1">
          <mxGeometry y="26" width="160" height="26" as="geometry" />
        </mxCell>
        <mxCell id="vX5pZIuZ9iRdlRf0UHtW-15" value="" style="line;strokeWidth=1;fillColor=none;align=left;verticalAlign=middle;spacingTop=-1;spacingLeft=3;spacingRight=3;rotatable=0;labelPosition=right;points=[];portConstraint=eastwest;strokeColor=inherit;" parent="vX5pZIuZ9iRdlRf0UHtW-13" vertex="1">
          <mxGeometry y="52" width="160" height="8" as="geometry" />
        </mxCell>
        <mxCell id="vX5pZIuZ9iRdlRf0UHtW-16" value="+ method(type): type" style="text;strokeColor=none;fillColor=none;align=left;verticalAlign=top;spacingLeft=4;spacingRight=4;overflow=hidden;rotatable=0;points=[[0,0.5],[1,0.5]];portConstraint=eastwest;whiteSpace=wrap;html=1;" parent="vX5pZIuZ9iRdlRf0UHtW-13" vertex="1">
          <mxGeometry y="60" width="160" height="26" as="geometry" />
        </mxCell>
        <mxCell id="vX5pZIuZ9iRdlRf0UHtW-17" style="edgeStyle=orthogonalEdgeStyle;rounded=0;orthogonalLoop=1;jettySize=auto;html=1;exitX=0;exitY=0.5;exitDx=0;exitDy=0;" parent="WIyWlLk6GJQsqaUBKTNV-1" source="vX5pZIuZ9iRdlRf0UHtW-14" target="DRw0ia5wetzp8-GoF1U9-54" edge="1">
          <mxGeometry relative="1" as="geometry" />
        </mxCell>
        <mxCell id="vX5pZIuZ9iRdlRf0UHtW-22" style="edgeStyle=orthogonalEdgeStyle;rounded=0;orthogonalLoop=1;jettySize=auto;html=1;exitX=0.5;exitY=1;exitDx=0;exitDy=0;entryX=0.5;entryY=0;entryDx=0;entryDy=0;" parent="WIyWlLk6GJQsqaUBKTNV-1" source="vX5pZIuZ9iRdlRf0UHtW-18" target="kKvoAmYUAKAfmo3sQOy--0" edge="1">
          <mxGeometry relative="1" as="geometry" />
        </mxCell>
        <UserObject label="GCSEngine" tooltip="an implementation of ICrawler, it&#39;s optimized to use google custome search engine" id="vX5pZIuZ9iRdlRf0UHtW-18">
          <mxCell style="swimlane;fontStyle=1;align=center;verticalAlign=top;childLayout=stackLayout;horizontal=1;startSize=26;horizontalStack=0;resizeParent=1;resizeParentMax=0;resizeLast=0;collapsible=1;marginBottom=0;whiteSpace=wrap;html=1;" parent="WIyWlLk6GJQsqaUBKTNV-1" vertex="1" collapsed="1">
            <mxGeometry x="-1440" y="460" width="100" height="30" as="geometry">
              <mxRectangle x="640" y="450" width="160" height="86" as="alternateBounds" />
            </mxGeometry>
          </mxCell>
        </UserObject>
        <mxCell id="vX5pZIuZ9iRdlRf0UHtW-19" value="+ field: type" style="text;strokeColor=none;fillColor=none;align=left;verticalAlign=top;spacingLeft=4;spacingRight=4;overflow=hidden;rotatable=0;points=[[0,0.5],[1,0.5]];portConstraint=eastwest;whiteSpace=wrap;html=1;" parent="vX5pZIuZ9iRdlRf0UHtW-18" vertex="1">
          <mxGeometry y="26" width="160" height="26" as="geometry" />
        </mxCell>
        <mxCell id="vX5pZIuZ9iRdlRf0UHtW-20" value="" style="line;strokeWidth=1;fillColor=none;align=left;verticalAlign=middle;spacingTop=-1;spacingLeft=3;spacingRight=3;rotatable=0;labelPosition=right;points=[];portConstraint=eastwest;strokeColor=inherit;" parent="vX5pZIuZ9iRdlRf0UHtW-18" vertex="1">
          <mxGeometry y="52" width="160" height="8" as="geometry" />
        </mxCell>
        <mxCell id="vX5pZIuZ9iRdlRf0UHtW-21" value="+ method(type): type" style="text;strokeColor=none;fillColor=none;align=left;verticalAlign=top;spacingLeft=4;spacingRight=4;overflow=hidden;rotatable=0;points=[[0,0.5],[1,0.5]];portConstraint=eastwest;whiteSpace=wrap;html=1;" parent="vX5pZIuZ9iRdlRf0UHtW-18" vertex="1">
          <mxGeometry y="60" width="160" height="26" as="geometry" />
        </mxCell>
        <mxCell id="vX5pZIuZ9iRdlRf0UHtW-27" style="edgeStyle=orthogonalEdgeStyle;rounded=0;orthogonalLoop=1;jettySize=auto;html=1;exitX=0.5;exitY=1;exitDx=0;exitDy=0;entryX=0.5;entryY=0;entryDx=0;entryDy=0;" parent="WIyWlLk6GJQsqaUBKTNV-1" source="vX5pZIuZ9iRdlRf0UHtW-23" target="kKvoAmYUAKAfmo3sQOy--4" edge="1">
          <mxGeometry relative="1" as="geometry" />
        </mxCell>
        <UserObject label="NoneProxy" tooltip="Direct request" id="vX5pZIuZ9iRdlRf0UHtW-23">
          <mxCell style="swimlane;fontStyle=1;align=center;verticalAlign=top;childLayout=stackLayout;horizontal=1;startSize=26;horizontalStack=0;resizeParent=1;resizeParentMax=0;resizeLast=0;collapsible=1;marginBottom=0;whiteSpace=wrap;html=1;" parent="WIyWlLk6GJQsqaUBKTNV-1" vertex="1" collapsed="1">
            <mxGeometry x="-1110" y="450" width="100" height="30" as="geometry">
              <mxRectangle x="970" y="440" width="160" height="86" as="alternateBounds" />
            </mxGeometry>
          </mxCell>
        </UserObject>
        <mxCell id="vX5pZIuZ9iRdlRf0UHtW-24" value="+ field: type" style="text;strokeColor=none;fillColor=none;align=left;verticalAlign=top;spacingLeft=4;spacingRight=4;overflow=hidden;rotatable=0;points=[[0,0.5],[1,0.5]];portConstraint=eastwest;whiteSpace=wrap;html=1;" parent="vX5pZIuZ9iRdlRf0UHtW-23" vertex="1">
          <mxGeometry y="26" width="160" height="26" as="geometry" />
        </mxCell>
        <mxCell id="vX5pZIuZ9iRdlRf0UHtW-25" value="" style="line;strokeWidth=1;fillColor=none;align=left;verticalAlign=middle;spacingTop=-1;spacingLeft=3;spacingRight=3;rotatable=0;labelPosition=right;points=[];portConstraint=eastwest;strokeColor=inherit;" parent="vX5pZIuZ9iRdlRf0UHtW-23" vertex="1">
          <mxGeometry y="52" width="160" height="8" as="geometry" />
        </mxCell>
        <mxCell id="vX5pZIuZ9iRdlRf0UHtW-26" value="+ method(type): type" style="text;strokeColor=none;fillColor=none;align=left;verticalAlign=top;spacingLeft=4;spacingRight=4;overflow=hidden;rotatable=0;points=[[0,0.5],[1,0.5]];portConstraint=eastwest;whiteSpace=wrap;html=1;" parent="vX5pZIuZ9iRdlRf0UHtW-23" vertex="1">
          <mxGeometry y="60" width="160" height="26" as="geometry" />
        </mxCell>
        <mxCell id="YQP-pUk7OFbld1O7eUfq-0" value="" style="group" parent="WIyWlLk6GJQsqaUBKTNV-1" vertex="1" connectable="0">
          <mxGeometry x="-2160" y="1330" width="780" height="666" as="geometry" />
        </mxCell>
        <mxCell id="YQP-pUk7OFbld1O7eUfq-1" value="LLM" style="shape=module;align=left;spacingLeft=20;align=center;verticalAlign=top;whiteSpace=wrap;html=1;" parent="YQP-pUk7OFbld1O7eUfq-0" vertex="1">
          <mxGeometry x="-130" y="60.54545454545455" width="930" height="605.4545454545455" as="geometry" />
        </mxCell>
        <mxCell id="YQP-pUk7OFbld1O7eUfq-16" value="«interface»&lt;br style=&quot;border-color: var(--border-color); font-weight: 400;&quot;&gt;LLModel" style="swimlane;fontStyle=1;align=center;verticalAlign=top;childLayout=stackLayout;horizontal=1;startSize=40;horizontalStack=0;resizeParent=1;resizeParentMax=0;resizeLast=0;collapsible=1;marginBottom=0;whiteSpace=wrap;html=1;" parent="YQP-pUk7OFbld1O7eUfq-0" vertex="1">
          <mxGeometry x="-80" y="90.81818181818183" width="190" height="100.54545454545455" as="geometry" />
        </mxCell>
        <mxCell id="YQP-pUk7OFbld1O7eUfq-20" value="- base_model" style="text;strokeColor=none;fillColor=none;align=left;verticalAlign=top;spacingLeft=4;spacingRight=4;overflow=hidden;rotatable=0;points=[[0,0.5],[1,0.5]];portConstraint=eastwest;whiteSpace=wrap;html=1;" parent="YQP-pUk7OFbld1O7eUfq-16" vertex="1">
          <mxGeometry y="40" width="190" height="26.236363636363638" as="geometry" />
        </mxCell>
        <mxCell id="YQP-pUk7OFbld1O7eUfq-17" value="" style="line;strokeWidth=1;fillColor=none;align=left;verticalAlign=middle;spacingTop=-1;spacingLeft=3;spacingRight=3;rotatable=0;labelPosition=right;points=[];portConstraint=eastwest;strokeColor=inherit;" parent="YQP-pUk7OFbld1O7eUfq-16" vertex="1">
          <mxGeometry y="66.23636363636363" width="190" height="8.072727272727274" as="geometry" />
        </mxCell>
        <mxCell id="Xao7OCAb9ZQWuUR-Rcpr-31" value="- invoke(prompt:Prompt)" style="text;strokeColor=none;fillColor=none;align=left;verticalAlign=top;spacingLeft=4;spacingRight=4;overflow=hidden;rotatable=0;points=[[0,0.5],[1,0.5]];portConstraint=eastwest;whiteSpace=wrap;html=1;" parent="YQP-pUk7OFbld1O7eUfq-16" vertex="1">
          <mxGeometry y="74.30909090909091" width="190" height="26.236363636363638" as="geometry" />
        </mxCell>
        <mxCell id="YQP-pUk7OFbld1O7eUfq-22" value="«interface»&lt;br style=&quot;border-color: var(--border-color); font-weight: 400;&quot;&gt;Embedding" style="swimlane;fontStyle=1;align=center;verticalAlign=top;childLayout=stackLayout;horizontal=1;startSize=40;horizontalStack=0;resizeParent=1;resizeParentMax=0;resizeLast=0;collapsible=1;marginBottom=0;whiteSpace=wrap;html=1;" parent="YQP-pUk7OFbld1O7eUfq-0" vertex="1">
          <mxGeometry x="-80" y="244.20000000000002" width="190" height="74.30909090909091" as="geometry" />
        </mxCell>
        <mxCell id="YQP-pUk7OFbld1O7eUfq-25" value="" style="line;strokeWidth=1;fillColor=none;align=left;verticalAlign=middle;spacingTop=-1;spacingLeft=3;spacingRight=3;rotatable=0;labelPosition=right;points=[];portConstraint=eastwest;strokeColor=inherit;" parent="YQP-pUk7OFbld1O7eUfq-22" vertex="1">
          <mxGeometry y="40" width="190" height="8.072727272727274" as="geometry" />
        </mxCell>
        <mxCell id="YQP-pUk7OFbld1O7eUfq-26" value="- get_embedding(text:str): list" style="text;strokeColor=none;fillColor=none;align=left;verticalAlign=top;spacingLeft=4;spacingRight=4;overflow=hidden;rotatable=0;points=[[0,0.5],[1,0.5]];portConstraint=eastwest;whiteSpace=wrap;html=1;" parent="YQP-pUk7OFbld1O7eUfq-22" vertex="1">
          <mxGeometry y="48.07272727272728" width="190" height="26.236363636363638" as="geometry" />
        </mxCell>
        <mxCell id="YQP-pUk7OFbld1O7eUfq-27" value="«interface»&lt;br style=&quot;border-color: var(--border-color); font-weight: 400;&quot;&gt;Prompt" style="swimlane;fontStyle=1;align=center;verticalAlign=top;childLayout=stackLayout;horizontal=1;startSize=40;horizontalStack=0;resizeParent=1;resizeParentMax=0;resizeLast=0;collapsible=1;marginBottom=0;whiteSpace=wrap;html=1;" parent="YQP-pUk7OFbld1O7eUfq-0" vertex="1">
          <mxGeometry x="520" y="90.81818181818183" width="180" height="100.54545454545455" as="geometry" />
        </mxCell>
        <mxCell id="YQP-pUk7OFbld1O7eUfq-29" value="- attr" style="text;strokeColor=none;fillColor=none;align=left;verticalAlign=top;spacingLeft=4;spacingRight=4;overflow=hidden;rotatable=0;points=[[0,0.5],[1,0.5]];portConstraint=eastwest;whiteSpace=wrap;html=1;" parent="YQP-pUk7OFbld1O7eUfq-27" vertex="1">
          <mxGeometry y="40" width="180" height="26.236363636363638" as="geometry" />
        </mxCell>
        <mxCell id="YQP-pUk7OFbld1O7eUfq-30" value="" style="line;strokeWidth=1;fillColor=none;align=left;verticalAlign=middle;spacingTop=-1;spacingLeft=3;spacingRight=3;rotatable=0;labelPosition=right;points=[];portConstraint=eastwest;strokeColor=inherit;" parent="YQP-pUk7OFbld1O7eUfq-27" vertex="1">
          <mxGeometry y="66.23636363636363" width="180" height="8.072727272727274" as="geometry" />
        </mxCell>
        <mxCell id="YQP-pUk7OFbld1O7eUfq-31" value="- get_prompt(args)" style="text;strokeColor=none;fillColor=none;align=left;verticalAlign=top;spacingLeft=4;spacingRight=4;overflow=hidden;rotatable=0;points=[[0,0.5],[1,0.5]];portConstraint=eastwest;whiteSpace=wrap;html=1;" parent="YQP-pUk7OFbld1O7eUfq-27" vertex="1">
          <mxGeometry y="74.30909090909091" width="180" height="26.236363636363638" as="geometry" />
        </mxCell>
        <mxCell id="YQP-pUk7OFbld1O7eUfq-32" value="«interface»&lt;br style=&quot;border-color: var(--border-color); font-weight: 400;&quot;&gt;Retriever" style="swimlane;fontStyle=1;align=center;verticalAlign=top;childLayout=stackLayout;horizontal=1;startSize=40;horizontalStack=0;resizeParent=1;resizeParentMax=0;resizeLast=0;collapsible=1;marginBottom=0;whiteSpace=wrap;html=1;" parent="YQP-pUk7OFbld1O7eUfq-0" vertex="1">
          <mxGeometry x="-80" y="337.03636363636366" width="190" height="126.78181818181818" as="geometry" />
        </mxCell>
        <mxCell id="YQP-pUk7OFbld1O7eUfq-33" value="- embedding_model" style="text;strokeColor=none;fillColor=none;align=left;verticalAlign=top;spacingLeft=4;spacingRight=4;overflow=hidden;rotatable=0;points=[[0,0.5],[1,0.5]];portConstraint=eastwest;whiteSpace=wrap;html=1;" parent="YQP-pUk7OFbld1O7eUfq-32" vertex="1">
          <mxGeometry y="40" width="190" height="26.236363636363638" as="geometry" />
        </mxCell>
        <mxCell id="cBk6g1LVJPNPOAJ5rDZ4-0" value="- index_mapper_creator" style="text;strokeColor=none;fillColor=none;align=left;verticalAlign=top;spacingLeft=4;spacingRight=4;overflow=hidden;rotatable=0;points=[[0,0.5],[1,0.5]];portConstraint=eastwest;whiteSpace=wrap;html=1;" parent="YQP-pUk7OFbld1O7eUfq-32" vertex="1">
          <mxGeometry y="66.23636363636363" width="190" height="26.236363636363638" as="geometry" />
        </mxCell>
        <mxCell id="YQP-pUk7OFbld1O7eUfq-34" value="" style="line;strokeWidth=1;fillColor=none;align=left;verticalAlign=middle;spacingTop=-1;spacingLeft=3;spacingRight=3;rotatable=0;labelPosition=right;points=[];portConstraint=eastwest;strokeColor=inherit;" parent="YQP-pUk7OFbld1O7eUfq-32" vertex="1">
          <mxGeometry y="92.47272727272727" width="190" height="8.072727272727274" as="geometry" />
        </mxCell>
        <mxCell id="Xao7OCAb9ZQWuUR-Rcpr-32" value="- invoke(prompt:Prompt): list[str]" style="text;strokeColor=none;fillColor=none;align=left;verticalAlign=top;spacingLeft=4;spacingRight=4;overflow=hidden;rotatable=0;points=[[0,0.5],[1,0.5]];portConstraint=eastwest;whiteSpace=wrap;html=1;" parent="YQP-pUk7OFbld1O7eUfq-32" vertex="1">
          <mxGeometry y="100.54545454545455" width="190" height="26.236363636363638" as="geometry" />
        </mxCell>
        <mxCell id="YQP-pUk7OFbld1O7eUfq-36" value="Role" style="swimlane;fontStyle=1;align=center;verticalAlign=top;childLayout=stackLayout;horizontal=1;startSize=40;horizontalStack=0;resizeParent=1;resizeParentMax=0;resizeLast=0;collapsible=1;marginBottom=0;whiteSpace=wrap;html=1;" parent="YQP-pUk7OFbld1O7eUfq-0" vertex="1">
          <mxGeometry x="530" y="217.96363636363637" width="160" height="100.54545454545455" as="geometry" />
        </mxCell>
        <mxCell id="YQP-pUk7OFbld1O7eUfq-37" value="- role" style="text;strokeColor=none;fillColor=none;align=left;verticalAlign=top;spacingLeft=4;spacingRight=4;overflow=hidden;rotatable=0;points=[[0,0.5],[1,0.5]];portConstraint=eastwest;whiteSpace=wrap;html=1;" parent="YQP-pUk7OFbld1O7eUfq-36" vertex="1">
          <mxGeometry y="40" width="160" height="26.236363636363638" as="geometry" />
        </mxCell>
        <mxCell id="Xao7OCAb9ZQWuUR-Rcpr-4" value="- role_description" style="text;strokeColor=none;fillColor=none;align=left;verticalAlign=top;spacingLeft=4;spacingRight=4;overflow=hidden;rotatable=0;points=[[0,0.5],[1,0.5]];portConstraint=eastwest;whiteSpace=wrap;html=1;" parent="YQP-pUk7OFbld1O7eUfq-36" vertex="1">
          <mxGeometry y="66.23636363636363" width="160" height="26.236363636363638" as="geometry" />
        </mxCell>
        <mxCell id="YQP-pUk7OFbld1O7eUfq-38" value="" style="line;strokeWidth=1;fillColor=none;align=left;verticalAlign=middle;spacingTop=-1;spacingLeft=3;spacingRight=3;rotatable=0;labelPosition=right;points=[];portConstraint=eastwest;strokeColor=inherit;" parent="YQP-pUk7OFbld1O7eUfq-36" vertex="1">
          <mxGeometry y="92.47272727272727" width="160" height="8.072727272727274" as="geometry" />
        </mxCell>
        <mxCell id="YQP-pUk7OFbld1O7eUfq-40" value="«interface»&lt;br style=&quot;border-color: var(--border-color); font-weight: 400;&quot;&gt;Assistant" style="swimlane;fontStyle=1;align=center;verticalAlign=top;childLayout=stackLayout;horizontal=1;startSize=40;horizontalStack=0;resizeParent=1;resizeParentMax=0;resizeLast=0;collapsible=1;marginBottom=0;whiteSpace=wrap;html=1;" parent="YQP-pUk7OFbld1O7eUfq-0" vertex="1">
          <mxGeometry x="310" y="141.27272727272728" width="160" height="153.01818181818183" as="geometry" />
        </mxCell>
        <mxCell id="YQP-pUk7OFbld1O7eUfq-45" value="- llmodels" style="text;strokeColor=none;fillColor=none;align=left;verticalAlign=top;spacingLeft=4;spacingRight=4;overflow=hidden;rotatable=0;points=[[0,0.5],[1,0.5]];portConstraint=eastwest;whiteSpace=wrap;html=1;" parent="YQP-pUk7OFbld1O7eUfq-40" vertex="1">
          <mxGeometry y="40" width="160" height="26.236363636363638" as="geometry" />
        </mxCell>
        <mxCell id="YQP-pUk7OFbld1O7eUfq-41" value="- retrievers" style="text;strokeColor=none;fillColor=none;align=left;verticalAlign=top;spacingLeft=4;spacingRight=4;overflow=hidden;rotatable=0;points=[[0,0.5],[1,0.5]];portConstraint=eastwest;whiteSpace=wrap;html=1;" parent="YQP-pUk7OFbld1O7eUfq-40" vertex="1">
          <mxGeometry y="66.23636363636363" width="160" height="26.236363636363638" as="geometry" />
        </mxCell>
        <mxCell id="YQP-pUk7OFbld1O7eUfq-42" value="- system_instructions" style="text;strokeColor=none;fillColor=none;align=left;verticalAlign=top;spacingLeft=4;spacingRight=4;overflow=hidden;rotatable=0;points=[[0,0.5],[1,0.5]];portConstraint=eastwest;whiteSpace=wrap;html=1;" parent="YQP-pUk7OFbld1O7eUfq-40" vertex="1">
          <mxGeometry y="92.47272727272727" width="160" height="26.236363636363638" as="geometry" />
        </mxCell>
        <mxCell id="YQP-pUk7OFbld1O7eUfq-43" value="" style="line;strokeWidth=1;fillColor=none;align=left;verticalAlign=middle;spacingTop=-1;spacingLeft=3;spacingRight=3;rotatable=0;labelPosition=right;points=[];portConstraint=eastwest;strokeColor=inherit;" parent="YQP-pUk7OFbld1O7eUfq-40" vertex="1">
          <mxGeometry y="118.7090909090909" width="160" height="8.072727272727274" as="geometry" />
        </mxCell>
        <mxCell id="YQP-pUk7OFbld1O7eUfq-44" value="- invoke(text)" style="text;strokeColor=none;fillColor=none;align=left;verticalAlign=top;spacingLeft=4;spacingRight=4;overflow=hidden;rotatable=0;points=[[0,0.5],[1,0.5]];portConstraint=eastwest;whiteSpace=wrap;html=1;" parent="YQP-pUk7OFbld1O7eUfq-40" vertex="1">
          <mxGeometry y="126.78181818181818" width="160" height="26.236363636363638" as="geometry" />
        </mxCell>
        <mxCell id="Xao7OCAb9ZQWuUR-Rcpr-6" value="«interface»&lt;br style=&quot;border-color: var(--border-color); font-weight: 400;&quot;&gt;RetrieverLLMEnhanced" style="swimlane;fontStyle=1;align=center;verticalAlign=top;childLayout=stackLayout;horizontal=1;startSize=40;horizontalStack=0;resizeParent=1;resizeParentMax=0;resizeLast=0;collapsible=1;marginBottom=0;whiteSpace=wrap;html=1;" parent="YQP-pUk7OFbld1O7eUfq-0" vertex="1" collapsed="1">
          <mxGeometry x="-80" y="498.4909090909091" width="170" height="40.36363636363637" as="geometry">
            <mxRectangle x="30" y="400" width="160" height="126" as="alternateBounds" />
          </mxGeometry>
        </mxCell>
        <mxCell id="Xao7OCAb9ZQWuUR-Rcpr-7" value="- embedding_model" style="text;strokeColor=none;fillColor=none;align=left;verticalAlign=top;spacingLeft=4;spacingRight=4;overflow=hidden;rotatable=0;points=[[0,0.5],[1,0.5]];portConstraint=eastwest;whiteSpace=wrap;html=1;" parent="Xao7OCAb9ZQWuUR-Rcpr-6" vertex="1">
          <mxGeometry y="40.36363636363637" width="160" height="26.236363636363638" as="geometry" />
        </mxCell>
        <mxCell id="Xao7OCAb9ZQWuUR-Rcpr-10" value="- llmodel" style="text;strokeColor=none;fillColor=none;align=left;verticalAlign=top;spacingLeft=4;spacingRight=4;overflow=hidden;rotatable=0;points=[[0,0.5],[1,0.5]];portConstraint=eastwest;whiteSpace=wrap;html=1;" parent="Xao7OCAb9ZQWuUR-Rcpr-6" vertex="1">
          <mxGeometry y="66.60000000000001" width="160" height="26.236363636363638" as="geometry" />
        </mxCell>
        <mxCell id="Xao7OCAb9ZQWuUR-Rcpr-8" value="" style="line;strokeWidth=1;fillColor=none;align=left;verticalAlign=middle;spacingTop=-1;spacingLeft=3;spacingRight=3;rotatable=0;labelPosition=right;points=[];portConstraint=eastwest;strokeColor=inherit;" parent="Xao7OCAb9ZQWuUR-Rcpr-6" vertex="1">
          <mxGeometry y="92.83636363636364" width="160" height="8.072727272727274" as="geometry" />
        </mxCell>
        <mxCell id="Xao7OCAb9ZQWuUR-Rcpr-9" value="- invoke" style="text;strokeColor=none;fillColor=none;align=left;verticalAlign=top;spacingLeft=4;spacingRight=4;overflow=hidden;rotatable=0;points=[[0,0.5],[1,0.5]];portConstraint=eastwest;whiteSpace=wrap;html=1;" parent="Xao7OCAb9ZQWuUR-Rcpr-6" vertex="1">
          <mxGeometry y="100.90909090909092" width="160" height="26.236363636363638" as="geometry" />
        </mxCell>
        <mxCell id="Xao7OCAb9ZQWuUR-Rcpr-28" style="edgeStyle=orthogonalEdgeStyle;rounded=0;orthogonalLoop=1;jettySize=auto;html=1;exitX=1;exitY=0.25;exitDx=0;exitDy=0;entryX=0;entryY=0.5;entryDx=0;entryDy=0;" parent="YQP-pUk7OFbld1O7eUfq-0" source="YQP-pUk7OFbld1O7eUfq-16" target="YQP-pUk7OFbld1O7eUfq-45" edge="1">
          <mxGeometry relative="1" as="geometry">
            <Array as="points">
              <mxPoint x="190" y="116.04545454545455" />
              <mxPoint x="190" y="194.75454545454548" />
            </Array>
          </mxGeometry>
        </mxCell>
        <mxCell id="Xao7OCAb9ZQWuUR-Rcpr-29" style="edgeStyle=orthogonalEdgeStyle;rounded=0;orthogonalLoop=1;jettySize=auto;html=1;exitX=1;exitY=0.25;exitDx=0;exitDy=0;entryX=0;entryY=0.5;entryDx=0;entryDy=0;" parent="YQP-pUk7OFbld1O7eUfq-0" source="YQP-pUk7OFbld1O7eUfq-32" target="YQP-pUk7OFbld1O7eUfq-41" edge="1">
          <mxGeometry relative="1" as="geometry">
            <Array as="points">
              <mxPoint x="190" y="369.32727272727277" />
              <mxPoint x="190" y="220.99090909090913" />
            </Array>
          </mxGeometry>
        </mxCell>
        <mxCell id="Xao7OCAb9ZQWuUR-Rcpr-30" style="edgeStyle=orthogonalEdgeStyle;rounded=0;orthogonalLoop=1;jettySize=auto;html=1;exitX=0;exitY=0.5;exitDx=0;exitDy=0;entryX=0;entryY=0.25;entryDx=0;entryDy=0;" parent="YQP-pUk7OFbld1O7eUfq-0" source="YQP-pUk7OFbld1O7eUfq-33" target="YQP-pUk7OFbld1O7eUfq-22" edge="1">
          <mxGeometry relative="1" as="geometry" />
        </mxCell>
        <mxCell id="m1pxBQxKSQny4CTIlQ61-11" value="«interface»&lt;br style=&quot;border-color: var(--border-color); font-weight: 400;&quot;&gt;Document" style="swimlane;fontStyle=1;align=center;verticalAlign=top;childLayout=stackLayout;horizontal=1;startSize=40;horizontalStack=0;resizeParent=1;resizeParentMax=0;resizeLast=0;collapsible=1;marginBottom=0;whiteSpace=wrap;html=1;" parent="YQP-pUk7OFbld1O7eUfq-0" vertex="1">
          <mxGeometry x="520" y="373.36363636363643" width="180" height="100.54545454545455" as="geometry" />
        </mxCell>
        <mxCell id="m1pxBQxKSQny4CTIlQ61-12" value="- doc_id" style="text;strokeColor=none;fillColor=none;align=left;verticalAlign=top;spacingLeft=4;spacingRight=4;overflow=hidden;rotatable=0;points=[[0,0.5],[1,0.5]];portConstraint=eastwest;whiteSpace=wrap;html=1;" parent="m1pxBQxKSQny4CTIlQ61-11" vertex="1">
          <mxGeometry y="40" width="180" height="26.236363636363638" as="geometry" />
        </mxCell>
        <mxCell id="m1pxBQxKSQny4CTIlQ61-13" value="" style="line;strokeWidth=1;fillColor=none;align=left;verticalAlign=middle;spacingTop=-1;spacingLeft=3;spacingRight=3;rotatable=0;labelPosition=right;points=[];portConstraint=eastwest;strokeColor=inherit;" parent="m1pxBQxKSQny4CTIlQ61-11" vertex="1">
          <mxGeometry y="66.23636363636363" width="180" height="8.072727272727274" as="geometry" />
        </mxCell>
        <mxCell id="m1pxBQxKSQny4CTIlQ61-14" value="- get_doc_content(args)" style="text;strokeColor=none;fillColor=none;align=left;verticalAlign=top;spacingLeft=4;spacingRight=4;overflow=hidden;rotatable=0;points=[[0,0.5],[1,0.5]];portConstraint=eastwest;whiteSpace=wrap;html=1;" parent="m1pxBQxKSQny4CTIlQ61-11" vertex="1">
          <mxGeometry y="74.30909090909091" width="180" height="26.236363636363638" as="geometry" />
        </mxCell>
        <mxCell id="dvFWSm_geoUTXBeCP-N0-98" style="edgeStyle=orthogonalEdgeStyle;rounded=0;orthogonalLoop=1;jettySize=auto;html=1;exitX=0;exitY=0.5;exitDx=0;exitDy=0;entryX=0;entryY=0.5;entryDx=0;entryDy=0;" parent="YQP-pUk7OFbld1O7eUfq-0" source="kP-gYpLggSy9y9qGKHEq-41" target="dvFWSm_geoUTXBeCP-N0-94" edge="1">
          <mxGeometry relative="1" as="geometry">
            <Array as="points">
              <mxPoint x="240" y="593.3454545454546" />
              <mxPoint x="240" y="343.0909090909091" />
            </Array>
          </mxGeometry>
        </mxCell>
        <mxCell id="dvFWSm_geoUTXBeCP-N0-99" style="edgeStyle=orthogonalEdgeStyle;rounded=0;orthogonalLoop=1;jettySize=auto;html=1;exitX=0;exitY=0.25;exitDx=0;exitDy=0;entryX=0;entryY=0.5;entryDx=0;entryDy=0;" parent="YQP-pUk7OFbld1O7eUfq-0" source="kP-gYpLggSy9y9qGKHEq-41" target="dvFWSm_geoUTXBeCP-N0-96" edge="1">
          <mxGeometry relative="1" as="geometry" />
        </mxCell>
        <mxCell id="dvFWSm_geoUTXBeCP-N0-102" style="edgeStyle=orthogonalEdgeStyle;rounded=0;orthogonalLoop=1;jettySize=auto;html=1;exitX=0;exitY=0.75;exitDx=0;exitDy=0;entryX=1;entryY=0.5;entryDx=0;entryDy=0;" parent="YQP-pUk7OFbld1O7eUfq-0" source="kP-gYpLggSy9y9qGKHEq-41" target="m1pxBQxKSQny4CTIlQ61-0" edge="1">
          <mxGeometry relative="1" as="geometry" />
        </mxCell>
        <mxCell id="kP-gYpLggSy9y9qGKHEq-41" value="«interface»&lt;br style=&quot;border-color: var(--border-color); font-weight: 400;&quot;&gt;IndexMapperCreator" style="swimlane;fontStyle=1;align=center;verticalAlign=top;childLayout=stackLayout;horizontal=1;startSize=40;horizontalStack=0;resizeParent=1;resizeParentMax=0;resizeLast=0;collapsible=1;marginBottom=0;whiteSpace=wrap;html=1;" parent="YQP-pUk7OFbld1O7eUfq-0" vertex="1">
          <mxGeometry x="300" y="569.1272727272728" width="180" height="48.07272727272728" as="geometry" />
        </mxCell>
        <mxCell id="kP-gYpLggSy9y9qGKHEq-42" value="" style="line;strokeWidth=1;fillColor=none;align=left;verticalAlign=middle;spacingTop=-1;spacingLeft=3;spacingRight=3;rotatable=0;labelPosition=right;points=[];portConstraint=eastwest;strokeColor=inherit;" parent="kP-gYpLggSy9y9qGKHEq-41" vertex="1">
          <mxGeometry y="40" width="180" height="8.072727272727274" as="geometry" />
        </mxCell>
        <mxCell id="dvFWSm_geoUTXBeCP-N0-100" style="edgeStyle=orthogonalEdgeStyle;rounded=0;orthogonalLoop=1;jettySize=auto;html=1;exitX=1;exitY=0.5;exitDx=0;exitDy=0;entryX=1;entryY=0.5;entryDx=0;entryDy=0;" parent="YQP-pUk7OFbld1O7eUfq-0" source="dvFWSm_geoUTXBeCP-N0-94" target="dvFWSm_geoUTXBeCP-N0-96" edge="1">
          <mxGeometry relative="1" as="geometry" />
        </mxCell>
        <mxCell id="dvFWSm_geoUTXBeCP-N0-94" value="«interface»&lt;br style=&quot;border-color: var(--border-color); font-weight: 400;&quot;&gt;IndexMapper" style="swimlane;fontStyle=1;align=center;verticalAlign=top;childLayout=stackLayout;horizontal=1;startSize=40;horizontalStack=0;resizeParent=1;resizeParentMax=0;resizeLast=0;collapsible=1;marginBottom=0;whiteSpace=wrap;html=1;" parent="YQP-pUk7OFbld1O7eUfq-0" vertex="1">
          <mxGeometry x="300" y="318.8727272727273" width="180" height="48.07272727272728" as="geometry" />
        </mxCell>
        <mxCell id="dvFWSm_geoUTXBeCP-N0-95" value="" style="line;strokeWidth=1;fillColor=none;align=left;verticalAlign=middle;spacingTop=-1;spacingLeft=3;spacingRight=3;rotatable=0;labelPosition=right;points=[];portConstraint=eastwest;strokeColor=inherit;" parent="dvFWSm_geoUTXBeCP-N0-94" vertex="1">
          <mxGeometry y="40" width="180" height="8.072727272727274" as="geometry" />
        </mxCell>
        <mxCell id="dvFWSm_geoUTXBeCP-N0-96" value="«interface»&lt;br style=&quot;border-color: var(--border-color); font-weight: 400;&quot;&gt;IndexMapperCell" style="swimlane;fontStyle=1;align=center;verticalAlign=top;childLayout=stackLayout;horizontal=1;startSize=40;horizontalStack=0;resizeParent=1;resizeParentMax=0;resizeLast=0;collapsible=1;marginBottom=0;whiteSpace=wrap;html=1;" parent="YQP-pUk7OFbld1O7eUfq-0" vertex="1">
          <mxGeometry x="300" y="415.74545454545455" width="180" height="48.07272727272728" as="geometry" />
        </mxCell>
        <mxCell id="dvFWSm_geoUTXBeCP-N0-97" value="" style="line;strokeWidth=1;fillColor=none;align=left;verticalAlign=middle;spacingTop=-1;spacingLeft=3;spacingRight=3;rotatable=0;labelPosition=right;points=[];portConstraint=eastwest;strokeColor=inherit;" parent="dvFWSm_geoUTXBeCP-N0-96" vertex="1">
          <mxGeometry y="40" width="180" height="8.072727272727274" as="geometry" />
        </mxCell>
        <mxCell id="dvFWSm_geoUTXBeCP-N0-108" style="edgeStyle=orthogonalEdgeStyle;rounded=0;orthogonalLoop=1;jettySize=auto;html=1;exitX=1;exitY=0.25;exitDx=0;exitDy=0;entryX=0;entryY=0.5;entryDx=0;entryDy=0;" parent="YQP-pUk7OFbld1O7eUfq-0" source="m1pxBQxKSQny4CTIlQ61-0" target="dvFWSm_geoUTXBeCP-N0-94" edge="1">
          <mxGeometry relative="1" as="geometry">
            <Array as="points">
              <mxPoint x="210" y="587.2909090909092" />
              <mxPoint x="210" y="343.0909090909091" />
            </Array>
          </mxGeometry>
        </mxCell>
        <mxCell id="m1pxBQxKSQny4CTIlQ61-0" value="«interface»&lt;br style=&quot;border-color: var(--border-color); font-weight: 400;&quot;&gt;Indexer" style="swimlane;fontStyle=1;align=center;verticalAlign=top;childLayout=stackLayout;horizontal=1;startSize=40;horizontalStack=0;resizeParent=1;resizeParentMax=0;resizeLast=0;collapsible=1;marginBottom=0;whiteSpace=wrap;html=1;" parent="YQP-pUk7OFbld1O7eUfq-0" vertex="1" collapsed="1">
          <mxGeometry x="-50" y="577.2" width="100" height="40.36363636363637" as="geometry">
            <mxRectangle x="-50" y="594" width="250" height="126" as="alternateBounds" />
          </mxGeometry>
        </mxCell>
        <mxCell id="m1pxBQxKSQny4CTIlQ61-1" value="- embedding_model" style="text;strokeColor=none;fillColor=none;align=left;verticalAlign=top;spacingLeft=4;spacingRight=4;overflow=hidden;rotatable=0;points=[[0,0.5],[1,0.5]];portConstraint=eastwest;whiteSpace=wrap;html=1;" parent="m1pxBQxKSQny4CTIlQ61-0" vertex="1">
          <mxGeometry y="40.36363636363637" width="250" height="26.236363636363638" as="geometry" />
        </mxCell>
        <mxCell id="m1pxBQxKSQny4CTIlQ61-4" value="- parser" style="text;strokeColor=none;fillColor=none;align=left;verticalAlign=top;spacingLeft=4;spacingRight=4;overflow=hidden;rotatable=0;points=[[0,0.5],[1,0.5]];portConstraint=eastwest;whiteSpace=wrap;html=1;" parent="m1pxBQxKSQny4CTIlQ61-0" vertex="1">
          <mxGeometry y="66.60000000000001" width="250" height="26.236363636363638" as="geometry" />
        </mxCell>
        <mxCell id="m1pxBQxKSQny4CTIlQ61-2" value="" style="line;strokeWidth=1;fillColor=none;align=left;verticalAlign=middle;spacingTop=-1;spacingLeft=3;spacingRight=3;rotatable=0;labelPosition=right;points=[];portConstraint=eastwest;strokeColor=inherit;" parent="m1pxBQxKSQny4CTIlQ61-0" vertex="1">
          <mxGeometry y="92.83636363636364" width="250" height="8.072727272727274" as="geometry" />
        </mxCell>
        <mxCell id="m1pxBQxKSQny4CTIlQ61-3" value="- invoke(doc: Document): IndexMapper" style="text;strokeColor=none;fillColor=none;align=left;verticalAlign=top;spacingLeft=4;spacingRight=4;overflow=hidden;rotatable=0;points=[[0,0.5],[1,0.5]];portConstraint=eastwest;whiteSpace=wrap;html=1;" parent="m1pxBQxKSQny4CTIlQ61-0" vertex="1">
          <mxGeometry y="100.90909090909092" width="250" height="26.236363636363638" as="geometry" />
        </mxCell>
        <mxCell id="m1pxBQxKSQny4CTIlQ61-10" value="&lt;h1&gt;&lt;span style=&quot;font-size: 10px; background-color: initial; font-weight: normal;&quot;&gt;&lt;/span&gt;&lt;/h1&gt;&lt;h1&gt;&lt;font style=&quot;font-size: 10px; font-weight: normal;&quot;&gt;Indexers create index mapper from docs retrieved from website, pdf files,...&lt;/font&gt;&lt;/h1&gt;&lt;h1&gt;&lt;font style=&quot;font-size: 10px; font-weight: normal;&quot;&gt;Retriever will search on this mapper to find related docs&lt;/font&gt;&lt;/h1&gt;" style="text;html=1;spacing=5;spacingTop=-20;whiteSpace=wrap;overflow=hidden;rounded=0;" parent="WIyWlLk6GJQsqaUBKTNV-1" vertex="1">
          <mxGeometry x="-2490" y="1160" width="210" height="150" as="geometry" />
        </mxCell>
        <mxCell id="dvFWSm_geoUTXBeCP-N0-44" value="Vector DB" style="shape=module;align=left;spacingLeft=20;align=center;verticalAlign=top;whiteSpace=wrap;html=1;" parent="WIyWlLk6GJQsqaUBKTNV-1" vertex="1">
          <mxGeometry x="-2130" y="2052" width="620" height="440" as="geometry" />
        </mxCell>
        <mxCell id="dvFWSm_geoUTXBeCP-N0-45" value="«interface»&lt;div&gt;VectorDB&lt;/div&gt;" style="swimlane;fontStyle=1;align=center;verticalAlign=top;childLayout=stackLayout;horizontal=1;startSize=40;horizontalStack=0;resizeParent=1;resizeParentMax=0;resizeLast=0;collapsible=1;marginBottom=0;whiteSpace=wrap;html=1;" parent="WIyWlLk6GJQsqaUBKTNV-1" vertex="1">
          <mxGeometry x="-2060" y="2110" width="160" height="72" as="geometry" />
        </mxCell>
        <mxCell id="dvFWSm_geoUTXBeCP-N0-47" value="" style="line;strokeWidth=1;fillColor=none;align=left;verticalAlign=middle;spacingTop=-1;spacingLeft=3;spacingRight=3;rotatable=0;labelPosition=right;points=[];portConstraint=eastwest;strokeColor=inherit;" parent="dvFWSm_geoUTXBeCP-N0-45" vertex="1">
          <mxGeometry y="40" width="160" height="8" as="geometry" />
        </mxCell>
        <mxCell id="dvFWSm_geoUTXBeCP-N0-48" value="+ method(type): type" style="text;strokeColor=none;fillColor=none;align=left;verticalAlign=top;spacingLeft=4;spacingRight=4;overflow=hidden;rotatable=0;points=[[0,0.5],[1,0.5]];portConstraint=eastwest;whiteSpace=wrap;html=1;" parent="dvFWSm_geoUTXBeCP-N0-45" vertex="1">
          <mxGeometry y="48" width="160" height="24" as="geometry" />
        </mxCell>
        <mxCell id="dvFWSm_geoUTXBeCP-N0-104" style="edgeStyle=orthogonalEdgeStyle;rounded=0;orthogonalLoop=1;jettySize=auto;html=1;entryX=0;entryY=0.25;entryDx=0;entryDy=0;exitX=1;exitY=0.75;exitDx=0;exitDy=0;" parent="WIyWlLk6GJQsqaUBKTNV-1" source="m1pxBQxKSQny4CTIlQ61-0" target="dvFWSm_geoUTXBeCP-N0-45" edge="1">
          <mxGeometry relative="1" as="geometry">
            <mxPoint x="-2110" y="1948" as="sourcePoint" />
            <Array as="points">
              <mxPoint x="-2080" y="1938" />
              <mxPoint x="-2080" y="2128" />
            </Array>
          </mxGeometry>
        </mxCell>
        <mxCell id="dvFWSm_geoUTXBeCP-N0-105" style="edgeStyle=orthogonalEdgeStyle;rounded=0;orthogonalLoop=1;jettySize=auto;html=1;exitX=0;exitY=0.5;exitDx=0;exitDy=0;entryX=0.5;entryY=0;entryDx=0;entryDy=0;" parent="WIyWlLk6GJQsqaUBKTNV-1" source="kP-gYpLggSy9y9qGKHEq-41" target="dvFWSm_geoUTXBeCP-N0-45" edge="1">
          <mxGeometry relative="1" as="geometry">
            <Array as="points">
              <mxPoint x="-1980" y="1924" />
            </Array>
          </mxGeometry>
        </mxCell>
        <mxCell id="dvFWSm_geoUTXBeCP-N0-107" value="&lt;h1&gt;&lt;span style=&quot;font-size: 10px; background-color: initial; font-weight: normal;&quot;&gt;&lt;/span&gt;&lt;/h1&gt;&lt;h1&gt;&lt;span style=&quot;font-weight: 400;&quot;&gt;&lt;font style=&quot;font-size: 12px;&quot;&gt;While indexer handle data for retriever at abstract level&lt;/font&gt;&lt;/span&gt;&lt;/h1&gt;&lt;h1&gt;&lt;font style=&quot;font-size: 12px; font-weight: normal;&quot;&gt;indexmapper creator is discrete class, it handles connection to vector database, type of index mapper and pass them to indexer&lt;/font&gt;&lt;/h1&gt;" style="text;html=1;spacing=5;spacingTop=-20;whiteSpace=wrap;overflow=hidden;rounded=0;" parent="WIyWlLk6GJQsqaUBKTNV-1" vertex="1">
          <mxGeometry x="-2430" y="2080" width="210" height="220" as="geometry" />
        </mxCell>
        <mxCell id="Ei9Rr9jgZhevmR6l8QsR-2" value="" style="group" parent="WIyWlLk6GJQsqaUBKTNV-1" vertex="1" connectable="0">
          <mxGeometry x="-1080" y="1260" width="780" height="666" as="geometry" />
        </mxCell>
        <mxCell id="Ei9Rr9jgZhevmR6l8QsR-3" value="LLM" style="shape=module;align=left;spacingLeft=20;align=center;verticalAlign=top;whiteSpace=wrap;html=1;" parent="Ei9Rr9jgZhevmR6l8QsR-2" vertex="1">
          <mxGeometry x="-130" y="60.54545454545455" width="930" height="605.4545454545455" as="geometry" />
        </mxCell>
        <mxCell id="Ei9Rr9jgZhevmR6l8QsR-4" value="«interface»&lt;br style=&quot;border-color: var(--border-color); font-weight: 400;&quot;&gt;LLModel" style="swimlane;fontStyle=1;align=center;verticalAlign=top;childLayout=stackLayout;horizontal=1;startSize=40;horizontalStack=0;resizeParent=1;resizeParentMax=0;resizeLast=0;collapsible=1;marginBottom=0;whiteSpace=wrap;html=1;" parent="Ei9Rr9jgZhevmR6l8QsR-2" vertex="1">
          <mxGeometry x="-80" y="90.81818181818183" width="190" height="100.54545454545455" as="geometry" />
        </mxCell>
        <mxCell id="Ei9Rr9jgZhevmR6l8QsR-5" value="- base_model" style="text;strokeColor=none;fillColor=none;align=left;verticalAlign=top;spacingLeft=4;spacingRight=4;overflow=hidden;rotatable=0;points=[[0,0.5],[1,0.5]];portConstraint=eastwest;whiteSpace=wrap;html=1;" parent="Ei9Rr9jgZhevmR6l8QsR-4" vertex="1">
          <mxGeometry y="40" width="190" height="26.236363636363638" as="geometry" />
        </mxCell>
        <mxCell id="Ei9Rr9jgZhevmR6l8QsR-6" value="" style="line;strokeWidth=1;fillColor=none;align=left;verticalAlign=middle;spacingTop=-1;spacingLeft=3;spacingRight=3;rotatable=0;labelPosition=right;points=[];portConstraint=eastwest;strokeColor=inherit;" parent="Ei9Rr9jgZhevmR6l8QsR-4" vertex="1">
          <mxGeometry y="66.23636363636363" width="190" height="8.072727272727274" as="geometry" />
        </mxCell>
        <mxCell id="Ei9Rr9jgZhevmR6l8QsR-7" value="- invoke(prompt:Prompt)" style="text;strokeColor=none;fillColor=none;align=left;verticalAlign=top;spacingLeft=4;spacingRight=4;overflow=hidden;rotatable=0;points=[[0,0.5],[1,0.5]];portConstraint=eastwest;whiteSpace=wrap;html=1;" parent="Ei9Rr9jgZhevmR6l8QsR-4" vertex="1">
          <mxGeometry y="74.30909090909091" width="190" height="26.236363636363638" as="geometry" />
        </mxCell>
        <mxCell id="Ei9Rr9jgZhevmR6l8QsR-8" value="«interface»&lt;br style=&quot;border-color: var(--border-color); font-weight: 400;&quot;&gt;Embedding" style="swimlane;fontStyle=1;align=center;verticalAlign=top;childLayout=stackLayout;horizontal=1;startSize=40;horizontalStack=0;resizeParent=1;resizeParentMax=0;resizeLast=0;collapsible=1;marginBottom=0;whiteSpace=wrap;html=1;" parent="Ei9Rr9jgZhevmR6l8QsR-2" vertex="1">
          <mxGeometry x="-80" y="244.20000000000002" width="190" height="74.30909090909091" as="geometry" />
        </mxCell>
        <mxCell id="Ei9Rr9jgZhevmR6l8QsR-9" value="" style="line;strokeWidth=1;fillColor=none;align=left;verticalAlign=middle;spacingTop=-1;spacingLeft=3;spacingRight=3;rotatable=0;labelPosition=right;points=[];portConstraint=eastwest;strokeColor=inherit;" parent="Ei9Rr9jgZhevmR6l8QsR-8" vertex="1">
          <mxGeometry y="40" width="190" height="8.072727272727274" as="geometry" />
        </mxCell>
        <mxCell id="Ei9Rr9jgZhevmR6l8QsR-10" value="- get_embedding(text:str): list" style="text;strokeColor=none;fillColor=none;align=left;verticalAlign=top;spacingLeft=4;spacingRight=4;overflow=hidden;rotatable=0;points=[[0,0.5],[1,0.5]];portConstraint=eastwest;whiteSpace=wrap;html=1;" parent="Ei9Rr9jgZhevmR6l8QsR-8" vertex="1">
          <mxGeometry y="48.07272727272728" width="190" height="26.236363636363638" as="geometry" />
        </mxCell>
        <mxCell id="Ei9Rr9jgZhevmR6l8QsR-11" value="«interface»&lt;br style=&quot;border-color: var(--border-color); font-weight: 400;&quot;&gt;Prompt" style="swimlane;fontStyle=1;align=center;verticalAlign=top;childLayout=stackLayout;horizontal=1;startSize=40;horizontalStack=0;resizeParent=1;resizeParentMax=0;resizeLast=0;collapsible=1;marginBottom=0;whiteSpace=wrap;html=1;" parent="Ei9Rr9jgZhevmR6l8QsR-2" vertex="1">
          <mxGeometry x="520" y="90.81818181818183" width="180" height="100.54545454545455" as="geometry" />
        </mxCell>
        <mxCell id="Ei9Rr9jgZhevmR6l8QsR-12" value="- attr" style="text;strokeColor=none;fillColor=none;align=left;verticalAlign=top;spacingLeft=4;spacingRight=4;overflow=hidden;rotatable=0;points=[[0,0.5],[1,0.5]];portConstraint=eastwest;whiteSpace=wrap;html=1;" parent="Ei9Rr9jgZhevmR6l8QsR-11" vertex="1">
          <mxGeometry y="40" width="180" height="26.236363636363638" as="geometry" />
        </mxCell>
        <mxCell id="Ei9Rr9jgZhevmR6l8QsR-13" value="" style="line;strokeWidth=1;fillColor=none;align=left;verticalAlign=middle;spacingTop=-1;spacingLeft=3;spacingRight=3;rotatable=0;labelPosition=right;points=[];portConstraint=eastwest;strokeColor=inherit;" parent="Ei9Rr9jgZhevmR6l8QsR-11" vertex="1">
          <mxGeometry y="66.23636363636363" width="180" height="8.072727272727274" as="geometry" />
        </mxCell>
        <mxCell id="Ei9Rr9jgZhevmR6l8QsR-14" value="- get_prompt(args)" style="text;strokeColor=none;fillColor=none;align=left;verticalAlign=top;spacingLeft=4;spacingRight=4;overflow=hidden;rotatable=0;points=[[0,0.5],[1,0.5]];portConstraint=eastwest;whiteSpace=wrap;html=1;" parent="Ei9Rr9jgZhevmR6l8QsR-11" vertex="1">
          <mxGeometry y="74.30909090909091" width="180" height="26.236363636363638" as="geometry" />
        </mxCell>
        <mxCell id="Ei9Rr9jgZhevmR6l8QsR-15" value="«interface»&lt;br style=&quot;border-color: var(--border-color); font-weight: 400;&quot;&gt;Retriever" style="swimlane;fontStyle=1;align=center;verticalAlign=top;childLayout=stackLayout;horizontal=1;startSize=40;horizontalStack=0;resizeParent=1;resizeParentMax=0;resizeLast=0;collapsible=1;marginBottom=0;whiteSpace=wrap;html=1;" parent="Ei9Rr9jgZhevmR6l8QsR-2" vertex="1">
          <mxGeometry x="-80" y="337.03636363636366" width="190" height="126.78181818181818" as="geometry" />
        </mxCell>
        <mxCell id="Ei9Rr9jgZhevmR6l8QsR-16" value="- embedding_model" style="text;strokeColor=none;fillColor=none;align=left;verticalAlign=top;spacingLeft=4;spacingRight=4;overflow=hidden;rotatable=0;points=[[0,0.5],[1,0.5]];portConstraint=eastwest;whiteSpace=wrap;html=1;" parent="Ei9Rr9jgZhevmR6l8QsR-15" vertex="1">
          <mxGeometry y="40" width="190" height="26.236363636363638" as="geometry" />
        </mxCell>
        <mxCell id="Ei9Rr9jgZhevmR6l8QsR-62" value="-&amp;nbsp;&lt;span style=&quot;background-color: initial;&quot;&gt;indexer&lt;/span&gt;" style="text;strokeColor=none;fillColor=none;align=left;verticalAlign=top;spacingLeft=4;spacingRight=4;overflow=hidden;rotatable=0;points=[[0,0.5],[1,0.5]];portConstraint=eastwest;whiteSpace=wrap;html=1;" parent="Ei9Rr9jgZhevmR6l8QsR-15" vertex="1">
          <mxGeometry y="66.23636363636363" width="190" height="26.236363636363638" as="geometry" />
        </mxCell>
        <mxCell id="Ei9Rr9jgZhevmR6l8QsR-18" value="" style="line;strokeWidth=1;fillColor=none;align=left;verticalAlign=middle;spacingTop=-1;spacingLeft=3;spacingRight=3;rotatable=0;labelPosition=right;points=[];portConstraint=eastwest;strokeColor=inherit;" parent="Ei9Rr9jgZhevmR6l8QsR-15" vertex="1">
          <mxGeometry y="92.47272727272727" width="190" height="8.072727272727274" as="geometry" />
        </mxCell>
        <mxCell id="Ei9Rr9jgZhevmR6l8QsR-19" value="- invoke(prompt:Prompt): list[str]" style="text;strokeColor=none;fillColor=none;align=left;verticalAlign=top;spacingLeft=4;spacingRight=4;overflow=hidden;rotatable=0;points=[[0,0.5],[1,0.5]];portConstraint=eastwest;whiteSpace=wrap;html=1;" parent="Ei9Rr9jgZhevmR6l8QsR-15" vertex="1">
          <mxGeometry y="100.54545454545455" width="190" height="26.236363636363638" as="geometry" />
        </mxCell>
        <mxCell id="Ei9Rr9jgZhevmR6l8QsR-20" value="Role" style="swimlane;fontStyle=1;align=center;verticalAlign=top;childLayout=stackLayout;horizontal=1;startSize=40;horizontalStack=0;resizeParent=1;resizeParentMax=0;resizeLast=0;collapsible=1;marginBottom=0;whiteSpace=wrap;html=1;" parent="Ei9Rr9jgZhevmR6l8QsR-2" vertex="1">
          <mxGeometry x="530" y="217.96363636363637" width="160" height="100.54545454545455" as="geometry" />
        </mxCell>
        <mxCell id="Ei9Rr9jgZhevmR6l8QsR-21" value="- role" style="text;strokeColor=none;fillColor=none;align=left;verticalAlign=top;spacingLeft=4;spacingRight=4;overflow=hidden;rotatable=0;points=[[0,0.5],[1,0.5]];portConstraint=eastwest;whiteSpace=wrap;html=1;" parent="Ei9Rr9jgZhevmR6l8QsR-20" vertex="1">
          <mxGeometry y="40" width="160" height="26.236363636363638" as="geometry" />
        </mxCell>
        <mxCell id="Ei9Rr9jgZhevmR6l8QsR-22" value="- role_description" style="text;strokeColor=none;fillColor=none;align=left;verticalAlign=top;spacingLeft=4;spacingRight=4;overflow=hidden;rotatable=0;points=[[0,0.5],[1,0.5]];portConstraint=eastwest;whiteSpace=wrap;html=1;" parent="Ei9Rr9jgZhevmR6l8QsR-20" vertex="1">
          <mxGeometry y="66.23636363636363" width="160" height="26.236363636363638" as="geometry" />
        </mxCell>
        <mxCell id="Ei9Rr9jgZhevmR6l8QsR-23" value="" style="line;strokeWidth=1;fillColor=none;align=left;verticalAlign=middle;spacingTop=-1;spacingLeft=3;spacingRight=3;rotatable=0;labelPosition=right;points=[];portConstraint=eastwest;strokeColor=inherit;" parent="Ei9Rr9jgZhevmR6l8QsR-20" vertex="1">
          <mxGeometry y="92.47272727272727" width="160" height="8.072727272727274" as="geometry" />
        </mxCell>
        <mxCell id="Ei9Rr9jgZhevmR6l8QsR-24" value="«interface»&lt;br style=&quot;border-color: var(--border-color); font-weight: 400;&quot;&gt;Assistant" style="swimlane;fontStyle=1;align=center;verticalAlign=top;childLayout=stackLayout;horizontal=1;startSize=40;horizontalStack=0;resizeParent=1;resizeParentMax=0;resizeLast=0;collapsible=1;marginBottom=0;whiteSpace=wrap;html=1;" parent="Ei9Rr9jgZhevmR6l8QsR-2" vertex="1">
          <mxGeometry x="310" y="141.27272727272728" width="160" height="153.01818181818183" as="geometry" />
        </mxCell>
        <mxCell id="Ei9Rr9jgZhevmR6l8QsR-25" value="- llmodels" style="text;strokeColor=none;fillColor=none;align=left;verticalAlign=top;spacingLeft=4;spacingRight=4;overflow=hidden;rotatable=0;points=[[0,0.5],[1,0.5]];portConstraint=eastwest;whiteSpace=wrap;html=1;" parent="Ei9Rr9jgZhevmR6l8QsR-24" vertex="1">
          <mxGeometry y="40" width="160" height="26.236363636363638" as="geometry" />
        </mxCell>
        <mxCell id="Ei9Rr9jgZhevmR6l8QsR-26" value="- retrievers" style="text;strokeColor=none;fillColor=none;align=left;verticalAlign=top;spacingLeft=4;spacingRight=4;overflow=hidden;rotatable=0;points=[[0,0.5],[1,0.5]];portConstraint=eastwest;whiteSpace=wrap;html=1;" parent="Ei9Rr9jgZhevmR6l8QsR-24" vertex="1">
          <mxGeometry y="66.23636363636363" width="160" height="26.236363636363638" as="geometry" />
        </mxCell>
        <mxCell id="Ei9Rr9jgZhevmR6l8QsR-27" value="- system_instructions" style="text;strokeColor=none;fillColor=none;align=left;verticalAlign=top;spacingLeft=4;spacingRight=4;overflow=hidden;rotatable=0;points=[[0,0.5],[1,0.5]];portConstraint=eastwest;whiteSpace=wrap;html=1;" parent="Ei9Rr9jgZhevmR6l8QsR-24" vertex="1">
          <mxGeometry y="92.47272727272727" width="160" height="26.236363636363638" as="geometry" />
        </mxCell>
        <mxCell id="Ei9Rr9jgZhevmR6l8QsR-28" value="" style="line;strokeWidth=1;fillColor=none;align=left;verticalAlign=middle;spacingTop=-1;spacingLeft=3;spacingRight=3;rotatable=0;labelPosition=right;points=[];portConstraint=eastwest;strokeColor=inherit;" parent="Ei9Rr9jgZhevmR6l8QsR-24" vertex="1">
          <mxGeometry y="118.7090909090909" width="160" height="8.072727272727274" as="geometry" />
        </mxCell>
        <mxCell id="Ei9Rr9jgZhevmR6l8QsR-29" value="- invoke(text)" style="text;strokeColor=none;fillColor=none;align=left;verticalAlign=top;spacingLeft=4;spacingRight=4;overflow=hidden;rotatable=0;points=[[0,0.5],[1,0.5]];portConstraint=eastwest;whiteSpace=wrap;html=1;" parent="Ei9Rr9jgZhevmR6l8QsR-24" vertex="1">
          <mxGeometry y="126.78181818181818" width="160" height="26.236363636363638" as="geometry" />
        </mxCell>
        <mxCell id="Ei9Rr9jgZhevmR6l8QsR-30" value="«interface»&lt;br style=&quot;border-color: var(--border-color); font-weight: 400;&quot;&gt;RetrieverLLMEnhanced" style="swimlane;fontStyle=1;align=center;verticalAlign=top;childLayout=stackLayout;horizontal=1;startSize=40;horizontalStack=0;resizeParent=1;resizeParentMax=0;resizeLast=0;collapsible=1;marginBottom=0;whiteSpace=wrap;html=1;" parent="Ei9Rr9jgZhevmR6l8QsR-2" vertex="1" collapsed="1">
          <mxGeometry x="-80" y="498.4909090909091" width="170" height="40.36363636363637" as="geometry">
            <mxRectangle x="30" y="400" width="160" height="126" as="alternateBounds" />
          </mxGeometry>
        </mxCell>
        <mxCell id="Ei9Rr9jgZhevmR6l8QsR-31" value="- embedding_model" style="text;strokeColor=none;fillColor=none;align=left;verticalAlign=top;spacingLeft=4;spacingRight=4;overflow=hidden;rotatable=0;points=[[0,0.5],[1,0.5]];portConstraint=eastwest;whiteSpace=wrap;html=1;" parent="Ei9Rr9jgZhevmR6l8QsR-30" vertex="1">
          <mxGeometry y="40.36363636363637" width="160" height="26.236363636363638" as="geometry" />
        </mxCell>
        <mxCell id="Ei9Rr9jgZhevmR6l8QsR-32" value="- llmodel" style="text;strokeColor=none;fillColor=none;align=left;verticalAlign=top;spacingLeft=4;spacingRight=4;overflow=hidden;rotatable=0;points=[[0,0.5],[1,0.5]];portConstraint=eastwest;whiteSpace=wrap;html=1;" parent="Ei9Rr9jgZhevmR6l8QsR-30" vertex="1">
          <mxGeometry y="66.60000000000001" width="160" height="26.236363636363638" as="geometry" />
        </mxCell>
        <mxCell id="Ei9Rr9jgZhevmR6l8QsR-33" value="" style="line;strokeWidth=1;fillColor=none;align=left;verticalAlign=middle;spacingTop=-1;spacingLeft=3;spacingRight=3;rotatable=0;labelPosition=right;points=[];portConstraint=eastwest;strokeColor=inherit;" parent="Ei9Rr9jgZhevmR6l8QsR-30" vertex="1">
          <mxGeometry y="92.83636363636364" width="160" height="8.072727272727274" as="geometry" />
        </mxCell>
        <mxCell id="Ei9Rr9jgZhevmR6l8QsR-34" value="- invoke" style="text;strokeColor=none;fillColor=none;align=left;verticalAlign=top;spacingLeft=4;spacingRight=4;overflow=hidden;rotatable=0;points=[[0,0.5],[1,0.5]];portConstraint=eastwest;whiteSpace=wrap;html=1;" parent="Ei9Rr9jgZhevmR6l8QsR-30" vertex="1">
          <mxGeometry y="100.90909090909092" width="160" height="26.236363636363638" as="geometry" />
        </mxCell>
        <mxCell id="Ei9Rr9jgZhevmR6l8QsR-35" style="edgeStyle=orthogonalEdgeStyle;rounded=0;orthogonalLoop=1;jettySize=auto;html=1;exitX=1;exitY=0.25;exitDx=0;exitDy=0;entryX=0;entryY=0.5;entryDx=0;entryDy=0;" parent="Ei9Rr9jgZhevmR6l8QsR-2" source="Ei9Rr9jgZhevmR6l8QsR-4" target="Ei9Rr9jgZhevmR6l8QsR-25" edge="1">
          <mxGeometry relative="1" as="geometry">
            <Array as="points">
              <mxPoint x="190" y="116.04545454545455" />
              <mxPoint x="190" y="194.75454545454548" />
            </Array>
          </mxGeometry>
        </mxCell>
        <mxCell id="Ei9Rr9jgZhevmR6l8QsR-36" style="edgeStyle=orthogonalEdgeStyle;rounded=0;orthogonalLoop=1;jettySize=auto;html=1;exitX=1;exitY=0.25;exitDx=0;exitDy=0;entryX=0;entryY=0.5;entryDx=0;entryDy=0;" parent="Ei9Rr9jgZhevmR6l8QsR-2" source="Ei9Rr9jgZhevmR6l8QsR-15" target="Ei9Rr9jgZhevmR6l8QsR-26" edge="1">
          <mxGeometry relative="1" as="geometry">
            <Array as="points">
              <mxPoint x="190" y="369.32727272727277" />
              <mxPoint x="190" y="220.99090909090913" />
            </Array>
          </mxGeometry>
        </mxCell>
        <mxCell id="Ei9Rr9jgZhevmR6l8QsR-37" style="edgeStyle=orthogonalEdgeStyle;rounded=0;orthogonalLoop=1;jettySize=auto;html=1;exitX=0;exitY=0.5;exitDx=0;exitDy=0;entryX=0;entryY=0.25;entryDx=0;entryDy=0;" parent="Ei9Rr9jgZhevmR6l8QsR-2" source="Ei9Rr9jgZhevmR6l8QsR-16" target="Ei9Rr9jgZhevmR6l8QsR-8" edge="1">
          <mxGeometry relative="1" as="geometry" />
        </mxCell>
        <mxCell id="Ei9Rr9jgZhevmR6l8QsR-38" value="«interface»&lt;br style=&quot;border-color: var(--border-color); font-weight: 400;&quot;&gt;Document" style="swimlane;fontStyle=1;align=center;verticalAlign=top;childLayout=stackLayout;horizontal=1;startSize=40;horizontalStack=0;resizeParent=1;resizeParentMax=0;resizeLast=0;collapsible=1;marginBottom=0;whiteSpace=wrap;html=1;" parent="Ei9Rr9jgZhevmR6l8QsR-2" vertex="1" collapsed="1">
          <mxGeometry x="520" y="350.1536363636364" width="100" height="40" as="geometry">
            <mxRectangle x="520" y="350.1536363636364" width="180" height="100.54545454545455" as="alternateBounds" />
          </mxGeometry>
        </mxCell>
        <mxCell id="Ei9Rr9jgZhevmR6l8QsR-39" value="- doc_id" style="text;strokeColor=none;fillColor=none;align=left;verticalAlign=top;spacingLeft=4;spacingRight=4;overflow=hidden;rotatable=0;points=[[0,0.5],[1,0.5]];portConstraint=eastwest;whiteSpace=wrap;html=1;" parent="Ei9Rr9jgZhevmR6l8QsR-38" vertex="1">
          <mxGeometry y="40" width="180" height="26.236363636363638" as="geometry" />
        </mxCell>
        <mxCell id="Ei9Rr9jgZhevmR6l8QsR-40" value="" style="line;strokeWidth=1;fillColor=none;align=left;verticalAlign=middle;spacingTop=-1;spacingLeft=3;spacingRight=3;rotatable=0;labelPosition=right;points=[];portConstraint=eastwest;strokeColor=inherit;" parent="Ei9Rr9jgZhevmR6l8QsR-38" vertex="1">
          <mxGeometry y="66.23636363636363" width="180" height="8.072727272727274" as="geometry" />
        </mxCell>
        <mxCell id="Ei9Rr9jgZhevmR6l8QsR-41" value="- get_doc_content(args)" style="text;strokeColor=none;fillColor=none;align=left;verticalAlign=top;spacingLeft=4;spacingRight=4;overflow=hidden;rotatable=0;points=[[0,0.5],[1,0.5]];portConstraint=eastwest;whiteSpace=wrap;html=1;" parent="Ei9Rr9jgZhevmR6l8QsR-38" vertex="1">
          <mxGeometry y="74.30909090909091" width="180" height="26.236363636363638" as="geometry" />
        </mxCell>
        <mxCell id="Ei9Rr9jgZhevmR6l8QsR-53" value="«interface»&lt;br style=&quot;border-color: var(--border-color); font-weight: 400;&quot;&gt;Indexer" style="swimlane;fontStyle=1;align=center;verticalAlign=top;childLayout=stackLayout;horizontal=1;startSize=40;horizontalStack=0;resizeParent=1;resizeParentMax=0;resizeLast=0;collapsible=1;marginBottom=0;whiteSpace=wrap;html=1;" parent="Ei9Rr9jgZhevmR6l8QsR-2" vertex="1" collapsed="1">
          <mxGeometry x="-50" y="577.2" width="100" height="40.36363636363637" as="geometry">
            <mxRectangle x="-50" y="594" width="250" height="126" as="alternateBounds" />
          </mxGeometry>
        </mxCell>
        <mxCell id="Ei9Rr9jgZhevmR6l8QsR-54" value="- embedding_model" style="text;strokeColor=none;fillColor=none;align=left;verticalAlign=top;spacingLeft=4;spacingRight=4;overflow=hidden;rotatable=0;points=[[0,0.5],[1,0.5]];portConstraint=eastwest;whiteSpace=wrap;html=1;" parent="Ei9Rr9jgZhevmR6l8QsR-53" vertex="1">
          <mxGeometry y="40.36363636363637" width="250" height="26.236363636363638" as="geometry" />
        </mxCell>
        <mxCell id="Ei9Rr9jgZhevmR6l8QsR-55" value="- parser" style="text;strokeColor=none;fillColor=none;align=left;verticalAlign=top;spacingLeft=4;spacingRight=4;overflow=hidden;rotatable=0;points=[[0,0.5],[1,0.5]];portConstraint=eastwest;whiteSpace=wrap;html=1;" parent="Ei9Rr9jgZhevmR6l8QsR-53" vertex="1">
          <mxGeometry y="66.60000000000001" width="250" height="26.236363636363638" as="geometry" />
        </mxCell>
        <mxCell id="Ei9Rr9jgZhevmR6l8QsR-56" value="" style="line;strokeWidth=1;fillColor=none;align=left;verticalAlign=middle;spacingTop=-1;spacingLeft=3;spacingRight=3;rotatable=0;labelPosition=right;points=[];portConstraint=eastwest;strokeColor=inherit;" parent="Ei9Rr9jgZhevmR6l8QsR-53" vertex="1">
          <mxGeometry y="92.83636363636364" width="250" height="8.072727272727274" as="geometry" />
        </mxCell>
        <mxCell id="Ei9Rr9jgZhevmR6l8QsR-57" value="- invoke(doc: Document): IndexMapper" style="text;strokeColor=none;fillColor=none;align=left;verticalAlign=top;spacingLeft=4;spacingRight=4;overflow=hidden;rotatable=0;points=[[0,0.5],[1,0.5]];portConstraint=eastwest;whiteSpace=wrap;html=1;" parent="Ei9Rr9jgZhevmR6l8QsR-53" vertex="1">
          <mxGeometry y="100.90909090909092" width="250" height="26.236363636363638" as="geometry" />
        </mxCell>
        <mxCell id="AdBQHt4oJ7Zt0BBI18R1-4" value="" style="group" vertex="1" connectable="0" parent="Ei9Rr9jgZhevmR6l8QsR-2">
          <mxGeometry x="180" y="440" width="500" height="210" as="geometry" />
        </mxCell>
        <mxCell id="AdBQHt4oJ7Zt0BBI18R1-3" value="Data Model" style="shape=module;align=left;spacingLeft=20;align=center;verticalAlign=top;whiteSpace=wrap;html=1;" vertex="1" parent="AdBQHt4oJ7Zt0BBI18R1-4">
          <mxGeometry width="500" height="210" as="geometry" />
        </mxCell>
        <mxCell id="AdBQHt4oJ7Zt0BBI18R1-11" style="edgeStyle=orthogonalEdgeStyle;rounded=0;orthogonalLoop=1;jettySize=auto;html=1;exitX=1;exitY=0.5;exitDx=0;exitDy=0;" edge="1" parent="AdBQHt4oJ7Zt0BBI18R1-4" source="Ei9Rr9jgZhevmR6l8QsR-69" target="AdBQHt4oJ7Zt0BBI18R1-5">
          <mxGeometry relative="1" as="geometry" />
        </mxCell>
        <mxCell id="Ei9Rr9jgZhevmR6l8QsR-69" value="«interface»&lt;br style=&quot;border-color: var(--border-color); font-weight: 400;&quot;&gt;IndexMapperCell" style="swimlane;fontStyle=1;align=center;verticalAlign=top;childLayout=stackLayout;horizontal=1;startSize=40;horizontalStack=0;resizeParent=1;resizeParentMax=0;resizeLast=0;collapsible=1;marginBottom=0;whiteSpace=wrap;html=1;" parent="AdBQHt4oJ7Zt0BBI18R1-4" vertex="1" collapsed="1">
          <mxGeometry x="39.99818181818182" y="30" width="125" height="40.36" as="geometry">
            <mxRectangle x="-50" y="594" width="250" height="126" as="alternateBounds" />
          </mxGeometry>
        </mxCell>
        <mxCell id="Ei9Rr9jgZhevmR6l8QsR-70" value="- embedding_model" style="text;strokeColor=none;fillColor=none;align=left;verticalAlign=top;spacingLeft=4;spacingRight=4;overflow=hidden;rotatable=0;points=[[0,0.5],[1,0.5]];portConstraint=eastwest;whiteSpace=wrap;html=1;" parent="Ei9Rr9jgZhevmR6l8QsR-69" vertex="1">
          <mxGeometry y="40.36363636363637" width="284.09090909090907" height="26.236363636363638" as="geometry" />
        </mxCell>
        <mxCell id="Ei9Rr9jgZhevmR6l8QsR-71" value="- parser" style="text;strokeColor=none;fillColor=none;align=left;verticalAlign=top;spacingLeft=4;spacingRight=4;overflow=hidden;rotatable=0;points=[[0,0.5],[1,0.5]];portConstraint=eastwest;whiteSpace=wrap;html=1;" parent="Ei9Rr9jgZhevmR6l8QsR-69" vertex="1">
          <mxGeometry y="66.60000000000001" width="284.09090909090907" height="26.236363636363638" as="geometry" />
        </mxCell>
        <mxCell id="Ei9Rr9jgZhevmR6l8QsR-72" value="" style="line;strokeWidth=1;fillColor=none;align=left;verticalAlign=middle;spacingTop=-1;spacingLeft=3;spacingRight=3;rotatable=0;labelPosition=right;points=[];portConstraint=eastwest;strokeColor=inherit;" parent="Ei9Rr9jgZhevmR6l8QsR-69" vertex="1">
          <mxGeometry y="92.83636363636364" width="284.09090909090907" height="8.072727272727274" as="geometry" />
        </mxCell>
        <mxCell id="Ei9Rr9jgZhevmR6l8QsR-73" value="- invoke(doc: Document): IndexMapper" style="text;strokeColor=none;fillColor=none;align=left;verticalAlign=top;spacingLeft=4;spacingRight=4;overflow=hidden;rotatable=0;points=[[0,0.5],[1,0.5]];portConstraint=eastwest;whiteSpace=wrap;html=1;" parent="Ei9Rr9jgZhevmR6l8QsR-69" vertex="1">
          <mxGeometry y="100.90909090909092" width="284.09090909090907" height="26.236363636363638" as="geometry" />
        </mxCell>
        <mxCell id="AdBQHt4oJ7Zt0BBI18R1-5" value="«interface»&lt;br style=&quot;border-color: var(--border-color); font-weight: 400;&quot;&gt;Collection" style="swimlane;fontStyle=1;align=center;verticalAlign=top;childLayout=stackLayout;horizontal=1;startSize=40;horizontalStack=0;resizeParent=1;resizeParentMax=0;resizeLast=0;collapsible=1;marginBottom=0;whiteSpace=wrap;html=1;" vertex="1" collapsed="1" parent="AdBQHt4oJ7Zt0BBI18R1-4">
          <mxGeometry x="199.99818181818182" y="30" width="125" height="40.36" as="geometry">
            <mxRectangle x="-50" y="594" width="250" height="126" as="alternateBounds" />
          </mxGeometry>
        </mxCell>
        <mxCell id="AdBQHt4oJ7Zt0BBI18R1-6" value="- embedding_model" style="text;strokeColor=none;fillColor=none;align=left;verticalAlign=top;spacingLeft=4;spacingRight=4;overflow=hidden;rotatable=0;points=[[0,0.5],[1,0.5]];portConstraint=eastwest;whiteSpace=wrap;html=1;" vertex="1" parent="AdBQHt4oJ7Zt0BBI18R1-5">
          <mxGeometry y="40.36363636363637" width="284.09090909090907" height="26.236363636363638" as="geometry" />
        </mxCell>
        <mxCell id="AdBQHt4oJ7Zt0BBI18R1-7" value="- parser" style="text;strokeColor=none;fillColor=none;align=left;verticalAlign=top;spacingLeft=4;spacingRight=4;overflow=hidden;rotatable=0;points=[[0,0.5],[1,0.5]];portConstraint=eastwest;whiteSpace=wrap;html=1;" vertex="1" parent="AdBQHt4oJ7Zt0BBI18R1-5">
          <mxGeometry y="66.60000000000001" width="284.09090909090907" height="26.236363636363638" as="geometry" />
        </mxCell>
        <mxCell id="AdBQHt4oJ7Zt0BBI18R1-8" value="" style="line;strokeWidth=1;fillColor=none;align=left;verticalAlign=middle;spacingTop=-1;spacingLeft=3;spacingRight=3;rotatable=0;labelPosition=right;points=[];portConstraint=eastwest;strokeColor=inherit;" vertex="1" parent="AdBQHt4oJ7Zt0BBI18R1-5">
          <mxGeometry y="92.83636363636364" width="284.09090909090907" height="8.072727272727274" as="geometry" />
        </mxCell>
        <mxCell id="AdBQHt4oJ7Zt0BBI18R1-9" value="- invoke(doc: Document): IndexMapper" style="text;strokeColor=none;fillColor=none;align=left;verticalAlign=top;spacingLeft=4;spacingRight=4;overflow=hidden;rotatable=0;points=[[0,0.5],[1,0.5]];portConstraint=eastwest;whiteSpace=wrap;html=1;" vertex="1" parent="AdBQHt4oJ7Zt0BBI18R1-5">
          <mxGeometry y="100.90909090909092" width="284.09090909090907" height="26.236363636363638" as="geometry" />
        </mxCell>
        <mxCell id="AdBQHt4oJ7Zt0BBI18R1-18" style="edgeStyle=orthogonalEdgeStyle;rounded=0;orthogonalLoop=1;jettySize=auto;html=1;exitX=1;exitY=0.5;exitDx=0;exitDy=0;" edge="1" parent="AdBQHt4oJ7Zt0BBI18R1-4" source="AdBQHt4oJ7Zt0BBI18R1-13" target="AdBQHt4oJ7Zt0BBI18R1-5">
          <mxGeometry relative="1" as="geometry" />
        </mxCell>
        <mxCell id="AdBQHt4oJ7Zt0BBI18R1-13" value="«interface»&lt;br style=&quot;border-color: var(--border-color); font-weight: 400;&quot;&gt;Convertor" style="swimlane;fontStyle=1;align=center;verticalAlign=top;childLayout=stackLayout;horizontal=1;startSize=40;horizontalStack=0;resizeParent=1;resizeParentMax=0;resizeLast=0;collapsible=1;marginBottom=0;whiteSpace=wrap;html=1;" vertex="1" collapsed="1" parent="AdBQHt4oJ7Zt0BBI18R1-4">
          <mxGeometry x="39.99818181818182" y="140" width="125" height="40.36" as="geometry">
            <mxRectangle x="-50" y="594" width="250" height="126" as="alternateBounds" />
          </mxGeometry>
        </mxCell>
        <mxCell id="AdBQHt4oJ7Zt0BBI18R1-14" value="- embedding_model" style="text;strokeColor=none;fillColor=none;align=left;verticalAlign=top;spacingLeft=4;spacingRight=4;overflow=hidden;rotatable=0;points=[[0,0.5],[1,0.5]];portConstraint=eastwest;whiteSpace=wrap;html=1;" vertex="1" parent="AdBQHt4oJ7Zt0BBI18R1-13">
          <mxGeometry y="40.36363636363637" width="284.09090909090907" height="26.236363636363638" as="geometry" />
        </mxCell>
        <mxCell id="AdBQHt4oJ7Zt0BBI18R1-15" value="- parser" style="text;strokeColor=none;fillColor=none;align=left;verticalAlign=top;spacingLeft=4;spacingRight=4;overflow=hidden;rotatable=0;points=[[0,0.5],[1,0.5]];portConstraint=eastwest;whiteSpace=wrap;html=1;" vertex="1" parent="AdBQHt4oJ7Zt0BBI18R1-13">
          <mxGeometry y="66.60000000000001" width="284.09090909090907" height="26.236363636363638" as="geometry" />
        </mxCell>
        <mxCell id="AdBQHt4oJ7Zt0BBI18R1-16" value="" style="line;strokeWidth=1;fillColor=none;align=left;verticalAlign=middle;spacingTop=-1;spacingLeft=3;spacingRight=3;rotatable=0;labelPosition=right;points=[];portConstraint=eastwest;strokeColor=inherit;" vertex="1" parent="AdBQHt4oJ7Zt0BBI18R1-13">
          <mxGeometry y="92.83636363636364" width="284.09090909090907" height="8.072727272727274" as="geometry" />
        </mxCell>
        <mxCell id="AdBQHt4oJ7Zt0BBI18R1-17" value="- invoke(doc: Document): IndexMapper" style="text;strokeColor=none;fillColor=none;align=left;verticalAlign=top;spacingLeft=4;spacingRight=4;overflow=hidden;rotatable=0;points=[[0,0.5],[1,0.5]];portConstraint=eastwest;whiteSpace=wrap;html=1;" vertex="1" parent="AdBQHt4oJ7Zt0BBI18R1-13">
          <mxGeometry y="100.90909090909092" width="284.09090909090907" height="26.236363636363638" as="geometry" />
        </mxCell>
        <mxCell id="AdBQHt4oJ7Zt0BBI18R1-10" style="edgeStyle=orthogonalEdgeStyle;rounded=0;orthogonalLoop=1;jettySize=auto;html=1;exitX=1;exitY=0.5;exitDx=0;exitDy=0;" edge="1" parent="Ei9Rr9jgZhevmR6l8QsR-2" source="AdBQHt4oJ7Zt0BBI18R1-5" target="Ei9Rr9jgZhevmR6l8QsR-38">
          <mxGeometry relative="1" as="geometry" />
        </mxCell>
        <mxCell id="AdBQHt4oJ7Zt0BBI18R1-23" style="edgeStyle=orthogonalEdgeStyle;rounded=0;orthogonalLoop=1;jettySize=auto;html=1;exitX=1;exitY=0.5;exitDx=0;exitDy=0;entryX=0;entryY=0.5;entryDx=10;entryDy=0;entryPerimeter=0;" edge="1" parent="Ei9Rr9jgZhevmR6l8QsR-2" source="Ei9Rr9jgZhevmR6l8QsR-53" target="AdBQHt4oJ7Zt0BBI18R1-3">
          <mxGeometry relative="1" as="geometry" />
        </mxCell>
        <mxCell id="Ei9Rr9jgZhevmR6l8QsR-58" value="Vector DB" style="shape=module;align=left;spacingLeft=20;align=center;verticalAlign=top;whiteSpace=wrap;html=1;" parent="WIyWlLk6GJQsqaUBKTNV-1" vertex="1">
          <mxGeometry x="-1170" y="2200" width="530" height="240" as="geometry" />
        </mxCell>
        <mxCell id="Ei9Rr9jgZhevmR6l8QsR-59" value="«interface»&lt;div&gt;VectorDB&lt;/div&gt;" style="swimlane;fontStyle=1;align=center;verticalAlign=top;childLayout=stackLayout;horizontal=1;startSize=40;horizontalStack=0;resizeParent=1;resizeParentMax=0;resizeLast=0;collapsible=1;marginBottom=0;whiteSpace=wrap;html=1;" parent="WIyWlLk6GJQsqaUBKTNV-1" vertex="1">
          <mxGeometry x="-1100" y="2320" width="160" height="72" as="geometry" />
        </mxCell>
        <mxCell id="Ei9Rr9jgZhevmR6l8QsR-60" value="" style="line;strokeWidth=1;fillColor=none;align=left;verticalAlign=middle;spacingTop=-1;spacingLeft=3;spacingRight=3;rotatable=0;labelPosition=right;points=[];portConstraint=eastwest;strokeColor=inherit;" parent="Ei9Rr9jgZhevmR6l8QsR-59" vertex="1">
          <mxGeometry y="40" width="160" height="8" as="geometry" />
        </mxCell>
        <mxCell id="Ei9Rr9jgZhevmR6l8QsR-61" value="+ method(type): type" style="text;strokeColor=none;fillColor=none;align=left;verticalAlign=top;spacingLeft=4;spacingRight=4;overflow=hidden;rotatable=0;points=[[0,0.5],[1,0.5]];portConstraint=eastwest;whiteSpace=wrap;html=1;" parent="Ei9Rr9jgZhevmR6l8QsR-59" vertex="1">
          <mxGeometry y="48" width="160" height="24" as="geometry" />
        </mxCell>
        <mxCell id="AdBQHt4oJ7Zt0BBI18R1-0" value="«interface»&lt;div&gt;VectorDBCollection&lt;/div&gt;" style="swimlane;fontStyle=1;align=center;verticalAlign=top;childLayout=stackLayout;horizontal=1;startSize=40;horizontalStack=0;resizeParent=1;resizeParentMax=0;resizeLast=0;collapsible=1;marginBottom=0;whiteSpace=wrap;html=1;" vertex="1" parent="WIyWlLk6GJQsqaUBKTNV-1">
          <mxGeometry x="-1100" y="2220" width="160" height="72" as="geometry" />
        </mxCell>
        <mxCell id="AdBQHt4oJ7Zt0BBI18R1-1" value="" style="line;strokeWidth=1;fillColor=none;align=left;verticalAlign=middle;spacingTop=-1;spacingLeft=3;spacingRight=3;rotatable=0;labelPosition=right;points=[];portConstraint=eastwest;strokeColor=inherit;" vertex="1" parent="AdBQHt4oJ7Zt0BBI18R1-0">
          <mxGeometry y="40" width="160" height="8" as="geometry" />
        </mxCell>
        <mxCell id="AdBQHt4oJ7Zt0BBI18R1-2" value="+ method(type): type" style="text;strokeColor=none;fillColor=none;align=left;verticalAlign=top;spacingLeft=4;spacingRight=4;overflow=hidden;rotatable=0;points=[[0,0.5],[1,0.5]];portConstraint=eastwest;whiteSpace=wrap;html=1;" vertex="1" parent="AdBQHt4oJ7Zt0BBI18R1-0">
          <mxGeometry y="48" width="160" height="24" as="geometry" />
        </mxCell>
        <mxCell id="AdBQHt4oJ7Zt0BBI18R1-22" style="edgeStyle=orthogonalEdgeStyle;rounded=0;orthogonalLoop=1;jettySize=auto;html=1;exitX=0.5;exitY=1;exitDx=0;exitDy=0;entryX=0.5;entryY=0;entryDx=0;entryDy=0;" edge="1" parent="WIyWlLk6GJQsqaUBKTNV-1" source="AdBQHt4oJ7Zt0BBI18R1-13" target="Ei9Rr9jgZhevmR6l8QsR-58">
          <mxGeometry relative="1" as="geometry" />
        </mxCell>
      </root>
    </mxGraphModel>
  </diagram>
</mxfile>
